<?xml version="1.0" standalone="no"?>
<!DOCTYPE svg PUBLIC "-//W3C//DTD SVG 1.1//EN" "http://www.w3.org/Graphics/SVG/1.1/DTD/svg11.dtd" >
<svg xmlns="http://www.w3.org/2000/svg">
<metadata></metadata>
<defs>
<font id="candy_cane_unregisteredRg" horiz-adv-x="668" >
<font-face units-per-em="2048" ascent="1638" descent="-410" />
<missing-glyph horiz-adv-x="500" />
<glyph horiz-adv-x="0" />
<glyph unicode="&#xd;" />
<glyph unicode=" " />
<glyph unicode="!" horiz-adv-x="490" />
<glyph unicode="&#x22;" horiz-adv-x="873" />
<glyph unicode="#" horiz-adv-x="1522" />
<glyph unicode="$" horiz-adv-x="1126" />
<glyph unicode="%" horiz-adv-x="1843" />
<glyph unicode="&#x26;" horiz-adv-x="1249" />
<glyph unicode="'" horiz-adv-x="625" />
<glyph unicode="(" horiz-adv-x="842" />
<glyph unicode=")" horiz-adv-x="880" />
<glyph unicode="*" horiz-adv-x="1161" />
<glyph unicode="+" horiz-adv-x="1132" />
<glyph unicode="," horiz-adv-x="626" />
<glyph unicode="-" horiz-adv-x="1230" />
<glyph unicode="." horiz-adv-x="446" />
<glyph unicode="/" horiz-adv-x="898" />
<glyph unicode="0" horiz-adv-x="1227" d="M96 682q0 251 130 451q149 229 387 229t388 -229q130 -200 130 -451t-130 -451q-150 -230 -388 -230t-387 230q-130 200 -130 451zM131 682q0 -64 10 -127q24 -39 49 -79q29 -41 91 -41q16 0 33 4q-44 104 -47 226q-97 26 -127 136q-9 -59 -9 -119zM283 1063 q0 -67 41 -115q38 78 94 131q-16 40 -16 84q0 60 29 111q-23 -12 -64 -42q-49 -37 -48 -48q0 -6 -18 -46.5t-18 -74.5zM302 682q0 -157 76 -287q90 -154 235 -154q146 0 235 154q76 131 76 287q0 157 -75 287q-89 154 -237 154q-145 0 -235 -155q-75 -130 -75 -286zM307 188 q61 -67 136 -105l102 16q57 16 79 101h-11q-65 -2 -131 36q-51 -58 -122 -58q-27 0 -53 10zM637 1163q85 -8 159 -72q46 40 104 40q35 0 68 -15q-68 97 -158 150q-51 -7 -101 -14q-48 -15 -72 -89zM821 105q66 41 119 106q2 13 17 51q12 30 12 54q0 79 -54 127 q-34 -83 -90 -142q21 -32 21 -94q0 -55 -25 -102zM937 855q21 -74 23 -155q91 -17 130 -114q5 49 5 101q0 49 -40 105q-45 65 -100 63h-18z" />
<glyph unicode="1" horiz-adv-x="1227" d="M311 1003q0 64 158 213.5t238 149.5q111 0 156 -35q53 -42 53 -153v-1076q0 -53 -35 -87.5t-88 -34.5t-88 34.5t-35 87.5v818q0 77 -49 77q-29 0 -80.5 -58.5t-101.5 -58.5q-47 0 -87.5 38.5t-40.5 84.5zM420 1105q97 -4 105 -5q57 -10 90 -51q32 34 48 132q14 83 87 126 q-9 1 -24 1q-85 0 -171 -69q-18 -15 -135 -134zM711 233q60 85 164 96v200q-58 -6 -109 -52q-55 -49 -55 -105v-139zM711 719q61 84 164 93v190q-58 -6 -109 -52q-55 -49 -55 -105v-126z" />
<glyph unicode="2" horiz-adv-x="1227" d="M128 101q0 20 1 73q1 47 1 74q-3 165 185 299q43 31 349 194q189 100 189 181q0 84 -75 140q-68 50 -155 50q-86 0 -156 -52q-77 -56 -77 -139q0 -51 -36 -87t-87 -36q-50 0 -86.5 36t-36.5 87q0 187 145 314q140 123 330 123q191 0 332 -120q148 -126 148 -314 q0 -179 -119 -288q-75 -69 -267 -153q-205 -90 -282 -151q-57 -45 -57 -71l4 -15h598q53 0 88 -35t35 -88t-35 -88t-88 -35h-721q-43 0 -83 28q-44 32 -44 73zM163 131q0 -37 29 -70.5t65 -33.5h152q-80 59 -80 147q0 31 12 59q-50 6 -100 11q-59 11 -64 61l-13 -16 q-1 1 -1 -41v-117zM198 1020q66 67 159 67q32 0 63 -9q69 65 172 74q-50 99 -162 99q-11 0 -33 -4.5t-32 -5.5q-129 -84 -167 -221zM337 514q44 -98 139 -98q33 0 98 32q47 26 95 52q-54 16 -107 32q-53 21 -90 64zM653 697q53 -90 157 -90q10 0 40 6q25 5 41 2 q116 82 153 209q-67 -82 -171 -82q-38 0 -70 12q-64 -49 -150 -57zM662 205q5 -46 66.5 -105t105.5 -59h142q82 0 82 82q0 18 -64 32q-67 15 -76 50h-256zM729 1305q72 -66 72 -165q0 -21 -3 -41q77 -56 93 -140q72 54 72 145q0 11 -22 88q-88 84 -212 113z" />
<glyph unicode="3" horiz-adv-x="1227" d="M136 463q0 50 36.5 86.5t86.5 36.5t86.5 -36.5t36.5 -86.5q0 -83 77 -140q70 -52 156 -52q87 0 155 51q75 55 75 139q0 107 -93 148q-85 24 -171 48q-92 31 -92 113q0 78 73 107q69 18 137 37q73 26 73 99q0 54 -55 88q-49 29 -106 29q-101 0 -137 -62q-19 -57 -39 -115 q-26 -61 -104 -61q-50 0 -86.5 36t-36.5 86q0 157 128 263q120 99 281 99q160 0 278 -103q123 -107 123 -266q0 -126 -88 -223q160 -128 160 -325q0 -188 -148 -314q-140 -119 -332 -119q-190 0 -329 122q-145 127 -145 315zM190 364q37 -138 166 -222q11 0 32.5 -5t33.5 -5 q111 0 161 100q-102 9 -171 73q-31 -9 -63 -9q-94 0 -159 68zM340 1166q0 -23 32 -60q24 -26 49 -53q10 29 33 54q-7 27 -7 55q0 95 69 161q-22 -6 -77 -46q-67 -47 -80 -54q-19 -35 -19 -57zM645 687q86 -9 150 -57q31 11 69 11q104 0 171 -81q-36 126 -152 208l-14 -1 q-12 0 -34 4.5t-34 4.5q-104 0 -156 -89zM647 1169q45 -6 81 -27q40 16 83 16q90 0 154 -62q-23 77 -85 136q-11 1 -41 10q-26 7 -42 7q-97 0 -150 -80zM721 79q124 28 212 113q22 76 22 88q0 90 -73 144q-16 -84 -93 -139q4 -21 4 -42q0 -98 -72 -164zM727 880 q74 -17 140 -53q7 26 7 49q0 69 -65 105q-16 -64 -82 -101zM772 1009v4v-4z" />
<glyph unicode="4" horiz-adv-x="1227" d="M115 525q0 45 159 374q99 200 197 399q41 84 227 84q69 0 134 -30q79 -37 79 -99v-598q99 0 135 -14q66 -25 66 -109q0 -83 -66 -108q-36 -14 -135 -14v-308q0 -53 -35 -87.5t-88 -34.5t-88 34.5t-35 87.5v308q-70 0 -211 -3t-211 -3q-50 0 -89 35.5t-39 85.5zM155 525 q0 -33 26.5 -56.5t59.5 -23.5q43 0 72 48l38 84q-52 -29 -111 -29q-39 0 -77 14q-8 -19 -8 -37zM271 790q29 -10 60 -10q85 0 135 61q24 29 74 137q-52 -29 -111 -29q-40 0 -77 14zM435 655h230v445h-16zM522 1286q62 -15 88 -45q7 -8 49 -86l35 180q-77 -13 -89 -15 q-47 -11 -83 -34zM608 614q7 -57 52 -109q49 -54 106 -54h126q-84 60 -94 163h-190zM706 101q1 -81 82 -81q82 0 82 82v93q-61 -85 -164 -94zM706 826q58 7 109 53q55 48 55 105v139q-60 -86 -164 -96v-201zM967 614q9 -89 85 -137q9 23 9 51q0 58 -47 86h-47z" />
<glyph unicode="5" horiz-adv-x="1227" d="M136 437q0 50 36.5 86.5t86.5 36.5t86.5 -36.5t36.5 -86.5q0 -83 77 -139q70 -52 156 -52q87 0 155 50q75 56 75 140q0 121 -155 168q-144 38 -288 75q-155 65 -155 230v326q0 49 36.5 86t86.5 37h464q53 0 87.5 -35t34.5 -88t-34.5 -88t-87.5 -35h-342v-125 q0 -32 16 -65q17 -38 43 -48q30 -4 83 -12q181 -29 296 -104q160 -104 160 -324q0 -188 -148 -314q-140 -120 -332 -120q-190 0 -329 122q-145 128 -145 315zM190 338q37 -137 166 -222q11 0 32.5 -4.5t33.5 -4.5q111 0 161 99q-102 9 -171 74q-31 -9 -63 -9q-94 0 -159 67z M288 1122q0 -73 46 -128t117 -63q0 23 -1.5 70.5t-1.5 71.5q0 175 101 244h-179q-33 0 -57.5 -25t-24.5 -57v-113zM645 661q86 -8 150 -57q31 12 69 12q104 0 171 -82q-36 127 -152 209l-14 -2q-12 0 -34 5t-34 5q-104 0 -156 -90zM652 1153h182q82 0 82 82t-82 82 q-70 0 -122.5 -47.5t-59.5 -116.5zM721 53q124 29 212 113q22 76 22 88q0 91 -73 145q-16 -84 -93 -140q4 -21 4 -42q0 -98 -72 -164z" />
<glyph unicode="6" horiz-adv-x="1227" d="M131 682q0 263 159 472q174 227 429 227q50 0 86.5 -36t36.5 -87q0 -50 -36.5 -86t-86.5 -36q-156 0 -256 -155q-87 -135 -87 -301q0 -75 22 -153q48 89 138 142t191 53q154 0 261.5 -110t107.5 -263q0 -155 -111.5 -262t-267.5 -107q-260 0 -431 226q-155 206 -155 476z M184 566q15 -103 56 -196l4 1q4 0 57 -48t103 -48q38 0 78 20q-78 81 -115 199l-35 -2q-82 -3 -148 74zM230 976q5 -5 5 -82q0 -109 104 -149q11 114 61 210q-61 61 -61 148q0 33 11 65q-75 -83 -120 -192zM492 558q0 -92 91 -122q48 81 144 81q23 0 45 -7q33 101 138 114 q-83 57 -184 57q-135 0 -230 -93q-4 -15 -4 -30zM541 78q83 -56 185 -56q134 0 229 92q4 15 4 31q0 92 -90 121q-48 -80 -145 -80q-23 0 -45 6q-32 -101 -138 -114zM597 1176l2 -26q60 17 120 33q76 26 76 85q0 45 -72 72q0 4 -2 4q-26 0 -76.5 -69t-47.5 -99zM601 351 q0 -52 36 -88t88 -36t88.5 36t36.5 88t-36.5 88.5t-88.5 36.5t-88 -36.5t-36 -88.5z" />
<glyph unicode="7" horiz-adv-x="1227" d="M115 1249q0 53 35 88t88 35q124 0 373 2.5t373 2.5q50 0 89 -35t39 -85q0 -48 -249 -570q-148 -307 -296 -615q-34 -72 -108 -72q-50 0 -89 35.5t-39 85.5q0 48 208 485q126 260 253 520h-554q-53 0 -88 35t-35 88zM165 1254q0 -58 48 -87h47q-10 89 -86 138 q-9 -23 -9 -51zM378 98q32 -56 77 -56q37 0 59 27q10 12 32 58q-40 13 -68 13q-40 0 -100 -42zM450 1331q84 -61 93 -164h190q-6 58 -52 109q-49 55 -105 55h-126zM482 363q53 31 114 31q38 0 75 -13l85 182q-30 10 -60 10q-88 0 -139 -65q-22 -28 -75 -145zM687 804 q52 29 111 29q40 0 77 -14l80 172q-29 10 -59 10q-86 0 -135 -60q-25 -29 -74 -137zM876 1205q51 28 111 28q39 0 77 -13q8 19 8 37q0 33 -26.5 56.5t-60.5 23.5q-43 0 -71 -48z" />
<glyph unicode="8" horiz-adv-x="1227" d="M136 463q0 193 160 321q-88 97 -88 230q0 157 128 263q120 99 281 99q160 0 278 -103q123 -107 123 -266q0 -126 -88 -223q160 -128 160 -325q0 -188 -148 -314q-140 -119 -332 -119q-190 0 -329 122q-145 127 -145 315zM190 364q37 -138 166 -222q11 0 32.5 -5t33.5 -5 q111 0 161 100q-102 9 -171 73q-31 -9 -63 -9q-94 0 -159 68zM208 1010v4v-4zM273 895q21 -47 57 -87q25 17 53 31q-63 12 -110 56zM281 634q0 -84 64 -138q17 87 99 142q-4 20 -4 39q0 98 73 164q-118 -25 -205 -101l-2 -16q-25 -42 -25 -90zM340 1166q0 -23 32 -60 q24 -26 49 -53q10 29 33 54q-7 27 -7 55q0 95 69 161q-22 -6 -77 -46q-67 -47 -80 -54q-19 -35 -19 -57zM382 457q0 -83 77 -137q69 -49 156 -49t155 51q75 55 75 139q0 83 -78 138q-69 48 -155 48q-88 0 -156 -50q-74 -55 -74 -140zM454 1009q0 -54 57 -87q48 -29 105 -29 t104 31q52 35 52 89t-55 88q-48 29 -106 29t-104 -31q-53 -35 -53 -90zM610 26h5q-3 -1 -5 0zM611 271h4h-4zM612 647h4h-4zM612 893h4h-4zM612 1376h5h-5zM645 687q86 -8 150 -57q32 11 69 11q104 0 171 -81q-36 126 -152 208l-17 -4q-31 12 -65 12q-104 0 -156 -89z M647 1169q45 -6 81 -27q40 16 83 16q90 0 154 -62q-23 77 -85 136q-11 1 -41 10q-26 7 -42 7q-97 0 -150 -80zM721 79q124 28 212 113q22 76 22 88q0 90 -73 144q-16 -84 -93 -139q4 -21 4 -42q0 -98 -72 -164zM727 880q74 -17 140 -53q7 26 7 49q0 69 -65 105 q-16 -64 -82 -101zM772 1009v4v-4z" />
<glyph unicode="9" horiz-adv-x="1227" d="M131 1012q0 155 111 262t267 107q261 0 431 -226q156 -207 156 -476q0 -263 -160 -473q-173 -226 -429 -226q-50 0 -86 36t-36 86q0 51 36 87t86 36q157 0 256 155q87 135 87 300q0 76 -21 154q-49 -89 -138.5 -142t-191.5 -53q-153 0 -260.5 109.5t-107.5 263.5z M267 1216q0 -92 91 -122q48 81 144 81q24 0 46 -6q32 101 137 114q-83 56 -184 56q-134 0 -230 -92q-4 -15 -4 -31zM317 736q83 -56 184 -56q134 0 230 93q4 15 4 30q0 92 -91 122q-48 -81 -144 -81q-24 0 -46 7q-32 -101 -137 -115zM377 1010q0 -52 36 -88.5t88 -36.5 t88.5 36.5t36.5 88.5t-36.5 88t-88.5 36t-88 -36t-36 -88zM432 93q0 -45 72 -73q-1 -3 1 -4q27 0 77 69.5t48 99.5l-2 26q-60 -17 -120 -33q-76 -26 -76 -85zM744 1065q79 -81 116 -198l34 1q82 4 149 -74q-15 104 -56 197l-4 -1q-4 0 -57 47.5t-104 47.5q-37 0 -78 -20z M827 406q60 -62 60 -148q0 -33 -10 -65q74 83 120 192q-6 5 -6 82q0 109 -103 149q-11 -115 -61 -210z" />
<glyph unicode=":" horiz-adv-x="446" d="M108 66q0 51 37 88t88 37t88 -37t37 -88t-37 -88t-88 -37t-88 37t-37 88zM108 703q0 51 37 88t88 37t88 -37t37 -88t-37 -88t-88 -37t-88 37t-37 88zM175 26q24 -35 64 -35q28 0 49.5 21.5t21.5 50.5q0 19 -11 35q-12 3 -25 3q-80 0 -99 -75zM175 663q24 -35 64 -35 q28 0 49.5 21.5t21.5 50.5q0 19 -11 35q-12 3 -25 3q-80 0 -99 -75z" />
<glyph unicode=";" horiz-adv-x="579" d="M91 -99q0 49 49 98q53 58 106 117q81 80 136 80q50 0 88 -38.5t38 -88.5q0 -48 -38 -85q-56 -61 -112 -121q-87 -85 -139 -85q-47 0 -87.5 38.5t-40.5 84.5zM250 703q0 51 37 88t88 37t88 -37t37 -88t-37 -88t-88 -37t-88 37t-37 88zM251 -22q0 -66 40 -116l102 94 q74 74 74 114q0 33 -25.5 58.5t-58.5 25.5q-53 0 -95 -62q-37 -57 -37 -114zM317 663q23 -35 63 -35q29 0 50 21.5t21 50.5q0 19 -10 35q-13 3 -26 3q-80 0 -98 -75z" />
<glyph unicode="&#x3c;" horiz-adv-x="1151" d="M41 593q0 68 79 109q216 116 431 232q359 189 407 189q50 0 85.5 -39.5t35.5 -89.5q0 -70 -67 -105l-570 -296l570 -297q67 -35 67 -105q0 -50 -35.5 -89.5t-85.5 -39.5q-30 0 -60 16l-778 406q-79 41 -79 109zM82 593q0 -44 57 -73l244 -127q-28 50 -28 107q0 62 30 108 q3 3 81 43q-55 72 -145 72q-33 0 -74 -17.5t-40 -17.5l-14 6q-62 -33 -70 -38q-41 -29 -41 -63zM560 885q110 -5 174 -95l192 101q-54 78 -150 78q-54 0 -216 -84zM608 391q0 -124 115 -170q4 -8 88 -51q-26 49 -26 105q0 44 16 84l-182 95q-11 -31 -11 -63z" />
<glyph unicode="=" horiz-adv-x="1167" d="M106 428q0 53 35 88t88 35h747q53 0 88 -35t35 -88t-35 -88t-88 -35h-747q-53 0 -88 35t-35 88zM106 920q0 53 35 87.5t88 34.5h747q53 0 88 -34.5t35 -87.5t-35 -88t-88 -35h-747q-53 0 -88 35t-35 88zM157 433q0 -58 48 -87h47q-10 89 -86 137q-9 -22 -9 -50zM157 924 q0 -58 48 -86h47q-10 89 -86 137q-9 -22 -9 -51zM441 510q84 -61 93 -164h191q-7 58 -52 109q-49 55 -106 55h-126zM441 1001q84 -60 93 -163h191q-7 58 -52 109q-49 54 -106 54h-126zM883 510q85 -61 94 -164q81 1 81 82q0 82 -82 82h-93zM883 1001q85 -60 94 -163 q81 0 81 82q0 81 -82 81h-93z" />
<glyph unicode="&#x3e;" horiz-adv-x="1142" d="M43 180q0 70 67 105l570 296l-570 297q-67 35 -67 105q0 50 35.5 89.5t85.5 39.5q30 0 60 -16l778 -406q79 -41 79 -109t-79 -109q-215 -116 -431 -232q-359 -189 -407 -189q-50 0 -85.5 39.5t-35.5 89.5zM196 283q54 -78 150 -78q54 0 216 84q-110 5 -173 95zM311 1004 q26 -49 26 -105q0 -44 -16 -84l182 -95q11 31 11 63q0 124 -114 170q-5 8 -89 51zM656 523q55 -72 145 -72q33 0 74.5 17.5t39.5 17.5l14 -6q62 33 70 38q41 29 41 63q0 44 -57 73l-244 127q28 -50 28 -107q0 -62 -30 -108q-3 -3 -81 -43z" />
<glyph unicode="?" horiz-adv-x="1045" d="M53 1059q0 122 162 221q145 89 276 89q199 0 340 -141.5t141 -340.5q0 -163 -100.5 -294t-258.5 -172q1 -161 -122 -161q-53 0 -88 35t-35 88v145q0 49 37 86t86 37q97 0 166.5 69.5t69.5 166.5t-69.5 166.5t-166.5 69.5q-76 0 -137 -49q-10 -8 -88 -90q-46 -49 -86 -49 q-49 0 -88 38t-39 86zM94 1060q0 -33 26 -57t60 -24q38 0 62 32q-37 56 -37 124q0 59 29 110q-46 -32 -88 -82q-52 -62 -52 -103zM365 12q0 51 36.5 88t88.5 37q51 0 88 -37t37 -88t-37 -88t-88 -37t-88 37t-37 88zM431 -27q24 -36 64 -36q29 0 50 21.5t21 50.5q0 19 -11 35 q-12 3 -25 3q-80 0 -99 -74zM443 1160q23 4 48 4q61 0 117 -26q60 44 134 44q48 0 92 -19q-65 81 -160 125h-56q-59 0 -108 -36t-67 -92zM704 514q142 74 194 196l-5 18q3 15 3 31q0 61 -37 110.5t-96 66.5q5 -24 5 -49q0 -97 -60 -172q18 -46 18 -99q0 -55 -22 -102z" />
<glyph unicode="@" horiz-adv-x="1323" d="M78 682q0 265 160 473q174 226 432 226q189 0 369 -157q187 -162 187 -348q0 -152 -110.5 -260t-263.5 -108q-152 0 -260 110.5t-108 263.5q0 135 89 237q-117 -43 -187 -180q-62 -122 -62 -259q0 -166 87 -301q99 -154 257 -154q80 0 152 54q12 9 107 101q56 54 98 54 q48 0 86 -38.5t38 -86.5q0 -125 -184 -233q-165 -96 -301 -96q-260 0 -430 226q-156 207 -156 476zM127 566q5 -37 24 -108q24 -89 36 -87q4 0 58 -48t103 -48q37 0 78 20q-79 81 -116 199l-34 -2q-85 0 -149 74zM175 938q0 -150 111 -193q11 114 61 210q-61 61 -61 148 q0 33 11 65q-75 -83 -120 -192q-2 -19 -2 -38zM483 58q88 -38 182 -38q46 0 88 55q39 52 39 99q0 15 -2 36q-59 -26 -121 -26q-14 -52 -74 -89q-55 -35 -112 -37zM525 873q2 -115 78 -205.5t190 -112.5q-36 45 -36 102q0 40 19 76q-87 47 -87 147q0 20 5 40q-28 14 -61 14 q-72 0 -108 -61zM546 1150q41 9 113 43q47 104 160 122q-74 25 -149 25q-59 0 -97 -67q-33 -61 -27 -123zM730 879q0 -51 37.5 -88t87.5 -37t87.5 37t37.5 88q0 50 -37 87.5t-88 37.5q-50 0 -87.5 -37.5t-37.5 -87.5zM915 1204q35 -45 35 -102q0 -40 -18 -76q86 -47 86 -147 q0 -20 -4 -39q28 -15 61 -15q72 0 107 61q-1 115 -77 205.5t-190 112.5zM968 368q56 -61 56 -145q0 -26 -7 -52q91 90 91 138q0 33 -26 57.5t-60 24.5q-31 0 -54 -23z" />
<glyph unicode="A" horiz-adv-x="1291" d="M98 119v696q0 223 158 381t380 158q223 0 381 -158t158 -381v-690q0 -53 -35 -88t-88 -35q-125 0 -125 177q0 18 1 51t1 46h-585q0 -14 1 -48.5t1 -53.5q0 -178 -125 -178q-53 0 -88 35t-35 88zM137 770q0 -140 18 -193q34 -98 146 -111l2 287q-117 27 -158 139 q-8 -48 -8 -122zM139 119q0 -82 82 -82q68 0 80 62q-103 11 -162 97v-77zM344 317h259q13 107 105 164l-238 2h-4q-85 0 -122 -43v-123zM344 522h585v293q0 124 -90.5 208.5t-214.5 84.5q-118 0 -199 -87t-81 -206v-293zM418 1143q0 -29 12 -65q84 66 192 71q44 117 168 140 q-75 24 -154 24q-54 0 -106 -12l-74 -68q-38 -43 -38 -90zM886 1037q70 -78 82 -183q106 -8 166 -96q0 132 -20 192q-36 105 -143 105q-40 0 -85 -18zM970 323q110 -16 164 -113v140q0 78 -42 132q-45 57 -122 66v-225z" />
<glyph unicode="B" horiz-adv-x="1265" d="M99 121v1104q0 48 36.5 84.5t84.5 36.5h523q147 0 252 -105.5t105 -251.5q0 -119 -71 -214q71 -50 118 -150q45 -96 45 -188q0 -181 -128 -309t-309 -128h-535q-48 0 -84.5 36.5t-36.5 84.5zM140 305q48 -63 157 -63h3v186q-101 8 -160 91v-214zM140 911q0 -69 46 -121.5 t114 -58.5v221q-101 8 -160 91v-132zM341 242h414q88 0 143 63q53 60 53 149q0 125 -137 185l-378 -7h-3q-58 0 -92 44v-434zM341 833q39 45 156 45q31 0 93 -3.5t92 -3.5q176 0 176 118q0 46 -34 80.5t-81 34.5h-402v-271zM342 1145h228q9 101 94 160h-136q-72 0 -125 -45 t-61 -115zM356 753q0 -80 80 -80q152 0 178 160q-92 4 -112 4q-146 0 -146 -84zM363 41h159q51 0 95 56q42 51 46 104h-205q-7 -100 -95 -160zM825 684q100 27 165.5 109.5t68.5 186.5q-72 110 -157 110q-18 0 -37 -4q34 -43 34 -97q0 -53 -21 -88q9 -27 9 -63 q0 -79 -62 -154zM874 657l20 -14q35 18 86 18q52 0 121 -39q-42 80 -100 121q-54 -57 -127 -86zM888 64q66 24 167 116q16 49 16 75q0 83 -82 148q-10 -66 -53 -118q12 -25 12 -70q0 -76 -60 -151z" />
<glyph unicode="C" horiz-adv-x="1181" d="M61 685q0 -265 157 -467q171 -218 429 -218q137 0 263 69t199 183q23 37 23 69q0 47 -38.5 85t-85.5 38q-42 0 -97 -53q-92 -88 -106 -98q-72 -53 -155 -53q-155 0 -255 149q-89 131 -89 295q0 163 88 295q100 149 255 149q87 0 158 -51q17 -13 101 -97q52 -51 94 -51 q50 0 89.5 35t39.5 84q0 113 -189 222q-170 98 -293 98q-253 0 -427 -219q-161 -204 -161 -464zM110 573q63 -72 140 -72h8l35 1q37 -115 116 -194q-41 -19 -78 -19q-51 0 -104 46.5t-57 46.5l-4 -1q-41 91 -56 192zM160 972q45 107 119 188q-10 -31 -10 -64q0 -84 61 -144 q-50 -93 -62 -205q-103 39 -103 145q0 76 -5 80zM466 77q56 2 111 35q61 37 74 88q62 0 121 25q2 -22 2 -35q0 -47 -39 -97q-42 -53 -87 -53q-94 0 -182 37zM526 1177q0 47 40.5 99t86.5 52q75 0 149 -24q-125 -20 -167 -136q-54 -3 -107 -25q-2 23 -2 34zM652 1368h1h-1z M843 1100q48 41 112 41q48 0 87 -22q47 -27 47 -71q0 -31 -25.5 -55.5t-57.5 -24.5t-86 53q-39 40 -77 79zM951 379q23 22 54 22q33 0 59.5 -23.5t26.5 -56.5q0 -46 -91 -134q7 25 7 51q0 82 -56 141z" />
<glyph unicode="D" horiz-adv-x="1282" d="M94 109v1120q0 49 36.5 86t85.5 37h308q282 0 482.5 -200.5t200.5 -482.5q0 -283 -200.5 -483t-482.5 -200h-82q-83 0 -113 71q-30 -71 -113 -71q-52 0 -87 34.5t-35 88.5zM135 259q0 -4 1.5 -12.5t1.5 -13.5q0 -63 40.5 -113.5t100.5 -66.5q19 22 19 56v149 q-105 13 -163 102v-101zM135 749l1 -26q5 -68 51 -119.5t111 -60.5v204q-105 12 -163 102v-100zM135 1240q3 -7 3 -26q0 -67 47 -119.5t113 -61.5q0 116 9 154q18 76 86 124h-177q-69 0 -81 -71zM339 179q35 52 103 52h82q181 0 309 128.5t128 309.5q0 179 -127.5 308 t-307.5 129h-187v-927zM382 49q23 -22 60 -22h82q85 0 143 50q57 50 57 125v12l-1 20q-79 -37 -167 -42q-46 -120 -174 -143zM522 1106h4h-4zM553 1146q85 -5 162 -39q67 67 162 67q25 0 50 -5q-60 48 -129 81q-7 -5 -21 -5q-8 0 -26.5 4t-28.5 4q-118 0 -169 -107zM910 950 q49 -67 73 -147q125 -12 183 -123q-2 75 -20 147q-30 41 -61 83q-40 48 -123 48q-26 0 -52 -8zM918 399q37 -60 37 -130q0 -49 -18 -92q59 50 105 112q2 14 16 50q12 30 12 53q0 100 -83 159q-20 -82 -69 -152z" />
<glyph unicode="E" horiz-adv-x="1157" d="M89 123v1122q0 49 37 86t86 37h786q53 0 88 -35t35 -88t-35 -88t-88 -35h-663v-272h344q53 0 88 -35t35 -88t-35 -88t-88 -35h-344v-358h663q53 0 88 -35t35 -88t-35 -88t-88 -35h-786q-49 0 -86 37t-37 86zM130 123q0 -38 67 -38q130 0 179 120q-56 0 -72 6.5t-16 31.5 q0 7 3 40.5t3 61.5q-104 12 -164 97v-319zM130 854q0 -55 54 -105q51 -46 108 -55l2 205q-103 11 -164 95v-140zM252 1224q0 -67 42 -120q0 64 37 64q7 0 33.5 -2.5t46.5 -2.5q8 103 92 164h-221q-30 -47 -30 -103zM448 645h231q82 0 82 82t-82 82q-205 0 -231 -164zM638 41 h203q114 52 115 53q47 32 60 109l-273 2q-15 -106 -105 -164zM805 1163h193q82 0 82 82t-82 82q-74 0 -129.5 -45.5t-63.5 -118.5z" />
<glyph unicode="F" horiz-adv-x="1101" d="M62 123v1122q0 49 36.5 86t85.5 37h787q53 0 88 -35t35 -88t-35 -88t-88 -35h-664v-272h344q53 0 88 -35t35 -88t-35 -88t-88 -35h-344v-481q0 -49 -36.5 -86t-86.5 -37q-49 0 -85.5 37t-36.5 86zM99 317q0 -215 154 -215h8h5v243q-103 12 -163 97q-1 -14 -3 -61 q-1 -40 -1 -64zM103 854q0 -55 54 -105q51 -46 107 -55l2 205q-102 11 -163 95v-140zM225 1224q0 -67 41 -120q0 64 38 64q7 0 33.5 -2.5t46.5 -2.5q8 103 92 164h-221q-30 -47 -30 -103zM420 645h231q82 0 82 82t-82 82q-204 0 -231 -164zM777 1163h194q82 0 82 82t-82 82 q-74 0 -130 -45.5t-64 -118.5z" />
<glyph unicode="G" horiz-adv-x="1246" d="M79 682q0 264 160 473q174 226 431 226q125 0 294 -101q185 -111 185 -226q0 -50 -39.5 -86.5t-89.5 -36.5q-42 0 -94 53q-84 86 -101 99q-70 53 -158 53q-156 0 -256 -155q-87 -135 -87 -301t88 -301q99 -154 256 -154q114 0 236 130v111h-283q-53 0 -87.5 35t-34.5 88 t34.5 88t87.5 35h406q49 0 86 -37t37 -86v-280q0 -43 -35 -89q-183 -240 -450 -240q-261 0 -431 226q-155 206 -155 476zM128 566q15 -103 56 -196q8 1 61.5 -47t103.5 -48q37 0 78 20q-79 81 -116 199l-35 -2h-6q-78 0 -142 74zM178 976q5 -5 5 -82q0 -109 103 -149 q12 114 62 210q-61 61 -61 148q0 33 11 65q-75 -83 -120 -192zM484 58q88 -38 182 -38q46 0 87 55q39 52 39 99q0 14 -2 36q-59 -26 -121 -26q-13 -52 -73 -89q-55 -35 -112 -37zM540 589q0 -68 62 -80q11 104 98 162h-79q-81 0 -81 -82zM544 1186q0 -12 2 -36q53 23 107 26 q42 119 167 139q-74 25 -149 25q-46 0 -86.5 -53.5t-40.5 -100.5zM861 1106q38 -40 77 -80q54 -55 86 -55t57.5 25.5t25.5 57.5q0 44 -46 71q-40 24 -88 24q-64 0 -112 -43zM945 487l2 -137q34 -9 64 -73.5t42 -65.5h-1q-1 0 -1 1q0 -3 30 26t30 61l-2 290q0 44 -40 69 q-55 -18 -90 -65.5t-34 -105.5z" />
<glyph unicode="H" horiz-adv-x="1316" d="M109 119v1122q0 53 35 88t88 35t88 -35t35 -88v-590h585v590q0 53 35 88t88 35t88 -35t35 -88v-1116q0 -53 -35 -88t-88 -35t-88 35t-35 88v281h-585v-287q0 -53 -35 -88t-88 -35t-88 35t-35 88zM148 770q0 -140 18 -193q34 -98 146 -111l2 287q-116 27 -158 139 q-8 -48 -8 -122zM150 119q0 -82 82 -82q68 0 80 62q-103 11 -162 97v-77zM152 1241q0 -69 46.5 -121t115.5 -60v178q0 26 -28.5 47.5t-54.5 21.5q-29 0 -54 -19t-25 -47zM355 446h259q13 107 105 164l-238 2h-4q-85 0 -122 -43v-123zM981 323q110 -16 164 -113v140 q0 78 -42 132q-45 57 -122 66v-225zM981 814q110 -16 164 -114v140q0 79 -42 133q-45 57 -122 65v-224zM988 1280q117 -17 157 -89v50q0 79 -89 79q-68 0 -68 -40z" />
<glyph unicode="I" horiz-adv-x="487" d="M111 102v1151q0 53 35 88t88 35t88 -35t35 -88v-1151q0 -53 -35 -87.5t-88 -34.5t-88 34.5t-35 87.5zM152 233q60 85 164 96v200q-58 -6 -109 -52q-55 -49 -55 -105v-139zM152 719q61 84 164 93v190q-58 -6 -109 -52q-55 -49 -55 -105v-126zM152 1161q61 84 164 94 q-1 80 -82 80q-82 0 -82 -82v-92z" />
<glyph unicode="J" horiz-adv-x="1041" d="M77 425q0 50 36.5 86.5t86.5 36.5q84 0 111 -78q21 -73 41 -146q39 -78 152 -78q69 0 123 54.5t54 123.5l2 811q0 52 35 87.5t88 35.5t88 -35t35 -88l-2 -810q0 -176 -124.5 -300.5t-300.5 -124.5t-300.5 124.5t-124.5 300.5zM124 396q0 -49 20 -83q44 60 85 86 q2 1 29 13q24 10 24 13q0 82 -82 82q-39 0 -62 -26q-14 -39 -14 -85zM381 233q31 -91 31 -169v-9q26 -14 90 -14q116 0 228 84q-38 53 -64 70q-30 19 -90 22q-29 -16 -76 -16q-59 0 -119 32zM723 410q60 85 164 96v200q-58 -6 -109 -52q-55 -49 -55 -105v-139zM723 896 q61 84 164 93v190q-58 -6 -109 -52q-55 -49 -55 -105v-126z" />
<glyph unicode="K" horiz-adv-x="1092" d="M71 102v1151q0 53 35 88t88 35t88 -35t35 -88v-229l252 291q39 44 91 44q50 0 88.5 -37.5t38.5 -87.5q0 -43 -32 -80l-438 -504v-43q39 49 96 49q43 0 81 -32l504 -439q44 -38 44 -90q0 -50 -37.5 -88.5t-87.5 -38.5q-43 0 -80 32l-272 228q-201 170 -248 226v-352 q0 -53 -35 -87.5t-88 -34.5t-88 34.5t-35 87.5zM112 233q60 85 164 96v200q-58 -6 -109 -52q-55 -49 -55 -105v-139zM112 719q61 84 164 93v190q-58 -6 -109 -52q-55 -49 -55 -105v-126zM112 1161q61 84 164 94q-1 80 -82 80q-82 0 -82 -82v-92zM317 889q65 -5 117 -42 l132 151q-48 33 -106 33q-85 0 -143 -68v-74zM330 513q0 -14 2 -23l67 -55q-6 26 -6 52q0 74 43 133q-106 -21 -106 -107zM566 1249q26 6 52 6q74 0 133 -43q-21 106 -107 106q-14 0 -23 -3zM616 329q0 -69 47 -122q9 -11 103 -91q-7 28 -7 56q0 72 42 131l-152 132 q-33 -48 -33 -106z" />
<glyph unicode="L" horiz-adv-x="1091" d="M64 123v1122q0 49 37 86t86 37t86 -37t37 -86v-999h663q53 0 88 -35t35 -88t-35 -88t-88 -35h-786q-49 0 -86 37t-37 86zM105 123q0 -38 67 -38q130 0 179 120q-56 0 -72 6.5t-16 31.5q0 7 3 40.5t3 61.5q-104 12 -164 97v-319zM105 854q0 -55 54 -105q51 -46 108 -55 l2 205q-103 11 -164 95v-140zM125 1266q39 -78 139 -93q0 17 1.5 51.5t1.5 51.5q-33 38 -73 38t-69 -48zM613 41h203q114 52 115 53q47 32 59 109l-272 2q-15 -106 -105 -164z" />
<glyph unicode="M" horiz-adv-x="1484" d="M111 119v1122q0 53 35 88t88 35t88 -35t35 -88l293 -362q37 -47 81 -47q45 0 83 47l293 362q0 53 35 88t88 35t87.5 -35t34.5 -88v-1122q0 -53 -34.5 -88t-87.5 -35t-88 35t-35 88v729l-162 -206q-114 -122 -226 -122q-98 0 -175 96l-187 232v-729q0 -53 -35 -88t-88 -35 t-88 35t-35 88zM151 770q0 -140 18 -193q33 -98 145 -111l2 287q-116 27 -158 139q-7 -48 -7 -122zM152 119q0 -82 82 -82q68 0 80 62q-103 11 -162 97v-77zM154 1241q0 -69 46.5 -121t115.5 -60v178q0 26 -28.5 47.5t-54.5 21.5q-29 0 -54 -19t-25 -47zM357 926l55 -67 q54 35 119 35q38 0 74 -13l-129 159q-53 31 -119 43v-157zM713 571q173 41 279 187q-16 34 -16 78q0 86 84 280l-222 -272q-11 -103 -31 -151q-26 -63 -94 -122zM1148 753q0 -48 1 -144t1 -143q112 13 145 111q18 53 18 193q0 74 -7 122q-42 -112 -158 -139zM1148 1060 q68 8 114.5 60t46.5 121q0 28 -24.5 47t-53.5 19q-26 0 -54.5 -21.5t-28.5 -47.5v-178zM1149 99q13 -62 81 -62q82 0 82 82v77q-59 -86 -163 -97z" />
<glyph unicode="N" horiz-adv-x="1316" d="M109 119v1122q0 53 35 88t88 35t88 -35t35 -88l585 -725v725q0 53 35 88t88 35t88 -35t35 -88v-1116q0 -53 -35 -88t-88 -35t-88 35t-35 88l-585 723v-729q0 -53 -35 -88t-88 -35t-88 35t-35 88zM148 770q0 -140 18 -193q34 -98 146 -111l2 287q-116 27 -158 139 q-8 -48 -8 -122zM150 119q0 -82 82 -82q68 0 80 62q-103 11 -162 97v-77zM152 1241q0 -69 46.5 -121t115.5 -60v178q0 26 -28.5 47.5t-54.5 21.5q-29 0 -54 -19t-25 -47zM355 926l55 -67q54 35 119 35q38 0 74 -13l-129 159q-53 31 -119 43v-157zM565 658l163 -202 q54 35 119 35q38 0 74 -13l-129 160q-80 46 -145 46q-56 0 -82 -26zM895 256l48 -59v88q-35 -7 -48 -29zM981 323q110 -16 164 -113v140q0 78 -42 132q-45 57 -122 66v-225zM981 814q110 -16 164 -114v140q0 79 -42 133q-45 57 -122 65v-224zM988 1280q117 -17 157 -89v50 q0 79 -89 79q-68 0 -68 -40z" />
<glyph unicode="O" horiz-adv-x="1375" d="M82 682q0 265 163 464q173 211 432 211q260 0 433 -211q163 -199 163 -464t-163 -464q-173 -211 -433 -211q-259 0 -432 211q-163 199 -163 464zM123 682q0 -63 11 -126l10 -11q37 -108 151 -108q19 0 37 4q-50 103 -53 224q-112 26 -146 135q-10 -59 -10 -118zM298 1060 q0 -67 47 -114q43 78 107 130q-17 40 -17 83q0 60 33 111q-70 -33 -130 -86l1 -4q0 -6 -20.5 -44.5t-20.5 -75.5zM319 682q0 -165 95 -295q104 -143 263 -143q160 0 264 144q94 129 94 294q0 167 -94 295q-103 143 -265 143q-159 0 -263 -143q-94 -130 -94 -295zM325 192 q71 -67 156 -104q2 1 55 1t96 32t58 83l-20 -1h-4q-67 0 -140 37q-58 -58 -140 -58q-31 0 -61 10zM704 1159q99 -8 183 -71q54 40 120 40q41 0 78 -16q-78 97 -182 150q4 1 -49 1q-110 0 -150 -104zM917 109q75 41 136 106q3 13 20 49q13 30 13 55q0 78 -61 126 q-40 -82 -104 -141q24 -31 24 -93q0 -55 -28 -102zM1050 853q24 -73 26 -153q105 -17 150 -113q6 48 6 100v13q-20 41 -40 83q-37 71 -119 71h-7z" />
<glyph unicode="P" horiz-adv-x="1105" d="M75 121v1104q0 48 36.5 84.5t84.5 36.5h523q147 0 252 -105.5t105 -251.5q0 -147 -105 -252t-252 -105h-307q-61 0 -95 44v-555q0 -48 -36.5 -84.5t-84.5 -36.5t-84.5 36.5t-36.5 84.5zM116 305q48 -63 157 -63h3v186q-101 8 -160 91v-214zM116 911q0 -69 46 -121.5 t114 -58.5v221q-101 8 -160 91v-132zM317 833q39 45 156 45q31 0 92.5 -3.5t92.5 -3.5q176 0 176 118q0 46 -34 80.5t-81 34.5h-402v-271zM318 1145h228q9 101 93 160h-135q-72 0 -125 -45t-61 -115zM332 753q0 -80 80 -80q152 0 178 160q-92 4 -113 4q-145 0 -145 -84z M800 684q101 27 166.5 109.5t68.5 186.5q-72 110 -157 110q-18 0 -37 -4q34 -43 34 -97q0 -53 -22 -88q10 -27 10 -63q0 -79 -63 -154z" />
<glyph unicode="Q" horiz-adv-x="1384" d="M87 682q0 265 162 464q174 211 433 211q260 0 433 -211q163 -199 163 -464q0 -225 -120 -406q90 -84 90 -139q0 -49 -38 -87.5t-88 -38.5q-54 0 -136 89q-138 -93 -304 -93q-259 0 -433 211q-162 199 -162 464zM128 682q0 -63 11 -126l10 -11q37 -108 151 -108q19 0 37 4 q-50 103 -53 224q-112 26 -147 135q-9 -59 -9 -118zM302 1060q0 -67 48 -114q43 78 107 130q-18 40 -18 83q0 60 34 111q-70 -33 -130 -86l1 -4q0 -6 -21 -44.5t-21 -75.5zM324 682q0 -165 95 -295q104 -143 263 -143q66 0 129 31q-77 72 -77 124q0 50 38.5 88t88.5 38 q52 0 124 -77q55 106 55 234q0 167 -94 295q-104 143 -265 143q-159 0 -263 -143q-94 -130 -94 -295zM330 192q70 -67 156 -104l94 8q88 18 115 108l-20 -1h-4q-67 0 -140 37q-58 -58 -140 -58q-32 0 -61 10zM709 1159q98 -8 183 -71q54 40 120 40q41 0 78 -16 q-78 97 -182 150l-16 -3q-16 4 -33 4q-111 0 -150 -104zM848 295q68 44 116 117q-57 57 -67 57q-43 0 -49 -174zM938 137q75 41 137 106q3 13 19 50q14 29 14 54q0 78 -62 126q-39 -82 -103 -141q23 -31 23 -93q0 -54 -28 -102zM1019 124l45 -45q29 -26 57 -26l13 189 q-51 -68 -115 -118zM1055 853q24 -73 26 -153q105 -17 150 -113q6 51 6 95v18q-20 42 -39 84q-41 70 -127 70h-7z" />
<glyph unicode="R" horiz-adv-x="1179" d="M100 121v1104q0 48 36.5 84.5t84.5 36.5h524q146 0 251 -105.5t105 -251.5q0 -98 -51.5 -183.5t-138.5 -131.5l102 -290q81 -236 81 -271q0 -51 -38 -85t-90 -34q-80 0 -112 84q-63 185 -190 554q-15 0 -66.5 -3t-82.5 -3q-133 0 -173 50v-555q0 -48 -36.5 -84.5 t-84.5 -36.5t-84.5 36.5t-36.5 84.5zM141 305q49 -63 157 -63h3v186q-100 8 -160 91v-214zM141 911q0 -69 46.5 -121.5t113.5 -58.5v221q-100 8 -160 91v-132zM342 833q40 45 157 45q31 0 92.5 -3.5t92.5 -3.5q176 0 176 118q0 46 -34.5 80.5t-80.5 34.5h-403v-271z M343 1145h228q9 101 94 160h-136q-72 0 -124.5 -45t-61.5 -115zM357 753q0 -80 81 -80q151 0 177 160q-91 4 -112 4q-146 0 -146 -84zM734 584q0 -45 25 -115q22 -56 44 -113q23 106 118 162l-46 137q-5 -8 -63 -17q-47 -7 -67 -7h-8q-3 -23 -3 -47zM826 684 q100 27 165.5 109.5t68.5 186.5q-72 110 -156 110q-18 0 -38 -4q35 -43 35 -97q0 -53 -22 -88q9 -27 9 -63q0 -79 -62 -154zM928 46q18 -11 40 -11q34 0 59.5 23t25.5 56q0 15 -25 88q-85 -55 -100 -156z" />
<glyph unicode="S" horiz-adv-x="1139" d="M83 436q0 49 37 85t86 36q78 0 109 -81q57 -149 57 -150q54 -80 188 -80q87 0 156 49q76 55 76 139q0 87 -76 138q-63 42 -157 50q-172 13 -281 102q-123 100 -123 266q0 156 128 261q121 99 281 99q156 0 276 -101q125 -107 125 -261q0 -51 -35.5 -88t-87.5 -37 q-76 0 -103 63q-21 58 -43 116q-37 62 -138 62q-58 0 -104 -31q-53 -35 -53 -90q0 -98 156 -116q211 -23 335 -121q145 -114 145 -315q0 -186 -148 -312q-141 -119 -331 -119t-329 122q-146 127 -146 314zM128 459l36 2h9q57 0 116 -44q-5 99 -83 99q-59 0 -78 -57zM196 990 q47 -110 167 -110q21 0 43 5q-41 41 -45 91q-70 66 -70 162q0 41 14 79q-107 -92 -109 -227zM321 105q99 -58 215 -63l-1 32q-2 67 53 132l-39 -1h-4q-29 0 -72 12q-89 -36 -90 -37q-40 -23 -62 -75zM364 714q93 -53 228 -53q56 0 115 27q66 31 87 77q-102 58 -221 61 q-64 -113 -190 -113q-9 0 -19 1zM428 1134q0 -11 2 -27q50 35 118 38q64 110 195 110q10 0 20 -1q-93 55 -200 55q-52 0 -95 -63q-40 -58 -40 -112zM715 1086q15 -15 47 -111q24 -71 80 -71q32 0 56.5 23t25.5 55q-47 109 -166 109q-22 0 -43 -5zM810 343q23 -117 90 -157 q87 97 96 223q-17 -2 -33 -2q-74 0 -131 38l1 -11q1 -44 -23 -91z" />
<glyph unicode="T" horiz-adv-x="1084" d="M54 1235q0 53 35 88t88 35h905q53 0 88 -35t35 -88t-35 -88t-88 -35h-326v-1010q0 -53 -35 -87.5t-88 -34.5t-87.5 34.5t-34.5 87.5v1010h-334q-53 0 -88 35t-35 88zM95 1235q0 -81 81 -82q9 103 93 164h-92q-82 0 -82 -82zM428 1153h190q9 103 93 164h-126 q-56 0 -105 -55q-46 -51 -52 -109zM552 233q60 85 163 96v200q-57 -6 -109 -52q-54 -49 -54 -105v-139zM552 719q60 84 163 93v190q-57 -6 -109 -52q-54 -49 -54 -105v-126zM901 1153h201q7 72 54 127l-27 37h-71q-56 0 -105 -55q-46 -51 -52 -109z" />
<glyph unicode="U" horiz-adv-x="1297" d="M100 535v690q0 53 35 88t88 35t87.5 -35t34.5 -88v-690q0 -120 85.5 -206.5t205.5 -86.5q122 0 208.5 85.5t86.5 207.5v696q0 53 35 88t88 35t88 -35t35 -88v-696q0 -223 -158 -381t-381 -158q-222 0 -380 158t-158 381zM141 592q0 -128 19 -195l70 -66q43 -35 86 -35 q32 0 73 16q-70 79 -82 183q-106 9 -166 97zM141 1000q0 -78 42 -132q45 -57 122 -66v225q-110 15 -164 113v-140zM485 61q74 -24 153 -24q55 0 107 11q37 35 74 69q37 43 37 90q0 29 -11 65q-85 -66 -192 -71q-44 -117 -168 -140zM972 597q116 -27 158 -140q8 50 8 150 q0 123 -23 178q-36 87 -141 99q0 -48 -1 -143.5t-1 -143.5zM974 1250q103 -10 162 -96v77q0 82 -82 82q-68 0 -80 -63z" />
<glyph unicode="V" horiz-adv-x="1633" d="M47 1248q0 50 39 85t89 35q75 0 108 -71l468 -1027q17 -37 46 -37q12 0 35 11.5t27 21.5l474 1031q33 71 108 71q50 0 89 -35t39 -85q0 -49 -244 -572q-146 -308 -292 -617q-23 -48 -96 -82q-65 -30 -125 -30t-129 30q-78 34 -100 82q-146 309 -292 617 q-244 523 -244 572zM88 1248q0 -19 48 -122q20 102 109 154q-23 48 -70 48q-34 0 -60.5 -23.5t-26.5 -56.5zM262 892q0 -38 21 -86l40 -80q20 101 109 153l-80 173q-90 -55 -90 -160zM462 464q0 -41 23 -93q22 -43 43 -86q19 103 108 156l-84 182q-90 -54 -90 -159zM669 53 q69 -52 141 -52q47 0 109 32q71 36 71 78q0 34 -31 72q-27 30 -53 61q-41 -69 -101 -69q-30 0 -56 22q-48 -29 -63 -60q-12 -23 -17 -84zM980 441q89 -53 107 -156l44 86q23 52 23 93q0 105 -90 159zM1184 879q89 -52 109 -153l40 80q21 48 21 86q0 105 -90 160zM1371 1280 q89 -52 109 -154q48 103 48 122q0 33 -26.5 56.5t-60.5 23.5q-48 0 -70 -48z" />
<glyph unicode="W" horiz-adv-x="2333" d="M47 1248q0 50 39 85t89 35q75 0 108 -71l468 -1027q17 -37 46 -37q61 0 112 125q46 117 93 233q64 126 158 126q92 0 156 -126q13 -24 89 -233q46 -125 92 -125q12 0 35 11.5t28 21.5l474 1031q33 71 107 71q51 0 89.5 -35t38.5 -85q0 -48 -244 -572q-146 -308 -292 -617 q-22 -48 -95 -82q-66 -30 -126 -30q-128 0 -198 77q-32 35 -79 143q-34 77 -75 77q-43 0 -78 -77q-51 -111 -80 -143q-68 -77 -190 -77q-60 0 -129 30q-78 34 -100 82q-146 309 -292 617q-244 524 -244 572zM88 1248q0 -19 48 -122q20 102 109 154q-23 48 -70 48 q-34 0 -60.5 -23.5t-26.5 -56.5zM262 892q0 -38 21 -86l40 -80q20 101 109 153l-80 173q-90 -55 -90 -160zM462 464q0 -41 23 -93q22 -43 43 -86q19 103 108 156l-84 182q-90 -54 -90 -159zM669 53q69 -52 141 -52q47 0 109 32q71 36 71 78q0 34 -31 72q-27 30 -53 61 q-41 -69 -101 -69q-30 0 -56 22q-48 -29 -63 -60q-12 -23 -17 -84zM1011 506q37 -23 56 -101l20 -120q20 43 71 43q43 0 62 -43q28 163 94 202q-29 63 -57 125q-37 55 -112 55q-57 0 -89 -55q-23 -53 -45 -106zM1369 53q70 -52 141 -52q47 0 109 32q71 36 71 78q0 34 -31 72 q-26 30 -52 61q-42 -69 -101 -69q-30 0 -57 22q-48 -29 -63 -60q-12 -23 -17 -84zM1680 441q90 -53 108 -156q21 43 43 86q23 52 23 93q0 105 -89 159zM1884 879q90 -52 109 -153l40 80q21 48 21 86q0 105 -89 160zM2071 1280q90 -52 109 -154q48 103 48 122 q0 33 -26.5 56.5t-59.5 23.5q-48 0 -71 -48z" />
<glyph unicode="X" horiz-adv-x="1291" d="M76 123q0 40 28 76l375 482l-375 482q-28 36 -28 76q0 50 39 87t89 37q56 0 94 -49l336 -433l337 433q38 49 94 49q50 0 88.5 -37t38.5 -87q0 -40 -28 -76l-374 -482l374 -482q28 -36 28 -76q0 -50 -38.5 -87t-88.5 -37q-56 0 -94 49l-337 433l-336 -433q-38 -49 -94 -49 q-50 0 -89 37t-39 87zM117 123q0 -33 26.5 -58t59.5 -25q36 0 62 32q-72 67 -72 165v10q-23 -29 -47 -57q-29 -40 -29 -67zM117 1239q0 -27 29 -67q24 -28 47 -57v13q-1 94 72 162q-26 32 -62 32q-33 0 -59.5 -25t-26.5 -58zM364 404q0 -79 56 -133l117 150q-71 66 -71 164 v10q-64 -79 -69 -88q-33 -50 -33 -103zM364 958q0 -53 33 -103q5 -9 69 -88l-1 9q-1 96 72 165l-117 150q-56 -55 -56 -133zM649 583q0 -54 36 -108q37 -47 74 -93l-1 9v8q0 93 71 160l-124 158q-56 -55 -56 -134zM665 846q0 -5 101 -133l69 89q-70 67 -70 161v15 q-100 -127 -100 -132zM949 201q0 -50 23 -90q9 -13 59 -76l36 6v16q-2 59 62 119l-124 158q-56 -55 -56 -133zM949 1161q0 -78 56 -133l124 158q-62 58 -62 128v7l-36 6q-49 -61 -58 -76q-24 -41 -24 -90z" />
<glyph unicode="Y" horiz-adv-x="1070" d="M61 1244q0 50 39.5 85.5t89.5 35.5q70 0 105 -67l296 -570l297 570q35 67 105 67q50 0 89.5 -35t39.5 -85q0 -30 -16 -61l-384 -737q6 -19 6 -41v-304q0 -53 -35 -87.5t-88 -34.5t-88 34.5t-35 87.5v304q-116 215 -232 431q-189 359 -189 407zM215 1061q0 -53 84 -215 q5 110 95 173l-101 193q-78 -55 -78 -151zM447 629q0 -56 42 -141q48 -94 96 -94q43 0 72 57l128 244q-81 -44 -128 -44q-49 0 -83 43q-12 15 -48 84q-79 -60 -79 -149zM550 39q22 -9 51 -9q58 0 86 48v47q-89 -10 -137 -86zM730 905q31 -11 63 -11q124 0 170 114q8 5 51 89 q-49 -27 -105 -27q-44 0 -84 17z" />
<glyph unicode="Z" horiz-adv-x="1505" d="M27 123q0 53 35 88t88 35l835 872h-768q-53 0 -88 35t-35 88t35 88t88 35h1116q53 0 88 -35t35 -88t-35 -88t-88 -35l-868 -872h807q53 0 88 -35t35 -88t-35 -88t-88 -35h-1122q-53 0 -88 35t-35 88zM83 122q0 -29 19 -54t48 -25q69 0 121 46.5t60 115.5h-178 q-26 0 -48 -28.5t-22 -54.5zM138 1234q0 -69 40 -69q17 118 89 158h-50q-79 0 -79 -89zM263 246h158l64 71q-32 51 -32 121q0 45 14 84q-66 -62 -132 -125q-56 -63 -72 -151zM420 1159h225q15 110 113 164h-140q-78 0 -132 -43q-57 -44 -66 -121zM498 47q49 -8 123 -8 q140 0 193 18q98 34 111 146l-287 2q-27 -116 -140 -158zM715 691q0 -70 36 -98l183 183q-48 61 -48 139q0 26 6 51l-144 -145q-33 -71 -33 -130zM910 1159h225q16 110 113 164h-140q-78 0 -132 -43q-57 -44 -66 -121zM1145 1114q2 -43 18 -86l90 86h-108zM1195 41h77 q82 0 82 82q0 68 -63 80q-10 -103 -96 -162z" />
<glyph unicode="[" horiz-adv-x="487" d="M110 102v1151q0 53 35 88t88 35h123q53 0 88 -35t35 -88t-35 -88t-88 -35v-905q53 0 88 -35t35 -88t-35 -87.5t-88 -34.5h-123q-53 0 -88 34.5t-35 87.5zM151 233q60 85 164 96v200q-58 -6 -109 -52q-55 -49 -55 -105v-139zM151 719q61 84 164 93v190q-58 -6 -109 -52 q-55 -49 -55 -105v-126zM151 1161q91 127 187 127q47 0 47 -55q0 -29 -27 -53q4 -4 9 -4q20 0 48.5 24.5t28.5 43.5q0 91 -90 91h-121q-82 0 -82 -82v-92z" />
<glyph unicode="\" horiz-adv-x="895" d="M50 1248q0 50 38.5 85t89.5 35q74 0 107 -71l524 -1134q13 -28 13 -55q0 -50 -39 -85t-89 -35q-75 0 -108 71l-523 1134q-13 28 -13 55zM91 1248q0 -19 48 -122q19 102 109 154q-23 48 -71 48q-33 0 -59.5 -23.5t-26.5 -56.5zM265 892q0 -38 21 -86l40 -80 q19 101 109 153l-81 173q-89 -55 -89 -160zM465 464q0 -41 23 -93q22 -43 43 -86q18 103 108 156l-85 182q-89 -54 -89 -159zM667 35q15 -3 29 -3q83 0 83 81q0 16 -25 70q-48 -30 -64.5 -60t-22.5 -88z" />
<glyph unicode="]" horiz-adv-x="609" d="M110 102q0 53 35 88t88 35v905q-53 0 -88 35t-35 88t35 88t88 35h123q53 0 88 -35t35 -88v-1151q0 -53 -35 -87.5t-88 -34.5h-123q-53 0 -88 34.5t-35 87.5zM144 112q0 -92 91 -92h121q82 0 82 82v93q-92 -127 -187 -127q-48 0 -48 54q0 30 28 54q-4 4 -10 4 q-19 0 -48 -24.5t-29 -43.5zM274 353q58 7 109 52q55 49 55 106v126q-61 -84 -164 -93v-191zM274 826q58 7 109 53q55 48 55 105v139q-60 -86 -164 -96v-201z" />
<glyph unicode="^" horiz-adv-x="0" d="M233 1142q0 43 70 116l96 90q71 73 140 73q67 0 139 -73q48 -45 95 -90q70 -73 70 -116q0 -37 -32.5 -68t-69.5 -31q-43 0 -113 68l-90 98l-90 -98q-70 -68 -112 -68q-38 0 -70.5 31t-32.5 68zM387 1230q0 -53 32 -94q88 88 104 100q61 46 133 46q33 0 58 -14 q-67 64 -79 74q-50 39 -98 39q-60 0 -105 -46t-45 -105z" />
<glyph unicode="_" horiz-adv-x="1116" d="M106 -123q0 53 34.5 88t87.5 35h747q53 0 88 -35t35 -88t-35 -88t-88 -35h-747q-53 0 -87.5 35t-34.5 88zM156 -118q0 -58 48 -87h47q-10 89 -86 137q-9 -22 -9 -50zM440 -41q84 -61 94 -164h190q-7 58 -52 109q-49 55 -106 55h-126zM883 -41q84 -61 93 -164q81 1 81 82 q0 82 -82 82h-92z" />
<glyph unicode="`" horiz-adv-x="0" d="M326 1304q0 50 38 88t88 38q48 0 86 -38l120 -112q86 -87 86 -139q0 -47 -38.5 -87.5t-85.5 -40.5q-49 0 -98 49l-116 106q-80 81 -80 136zM367 1305q0 -53 63 -95q56 -38 113 -38q66 0 116 41l-94 102q-74 74 -114 74q-33 0 -58.5 -25.5t-25.5 -58.5z" />
<glyph unicode="a" horiz-adv-x="1363" d="M100 500q0 198 143 340t340 142q141 0 263.5 -76t184.5 -202q0 14 -1.5 52.5t-1.5 59.5q0 174 119 174q50 0 83 -33t33 -83v-744q0 -51 -33 -83.5t-83 -32.5q-119 0 -119 171q0 20 1.5 56t1.5 50q-62 -128 -185 -209.5t-263 -81.5q-199 0 -342 152q-141 149 -141 348z M139 500q0 -59 62 -105q54 -41 109 -41h8h13q-37 67 -37 144q0 42 11 82q-68 65 -68 161q0 21 4 41q-102 -123 -102 -282zM293 161q125 -109 289 -109q57 0 103 62q40 56 40 111v5v13q-65 -36 -140 -36q-36 0 -70 8q-65 -64 -156 -64q-34 0 -66 10zM332 498 q0 -104 74.5 -178t178.5 -74q103 0 177.5 74t74.5 178q0 103 -74.5 177.5t-177.5 74.5q-104 0 -178.5 -74.5t-74.5 -177.5zM440 765l1 -14q66 38 144 38q37 0 74 -10q62 80 170 80q9 0 18 -1q-117 85 -261 85q-58 1 -103 -59q-43 -57 -43 -114v-5zM840 638q35 -65 35 -141 q0 -30 -6 -60q76 -66 76 -169q0 -18 -3 -36q88 118 88 264q0 56 -62 102q-55 41 -111 41h-5zM1070 252q57 81 154 91v190q-54 -6 -102 -50q-52 -46 -52 -99v-132zM1070 711q57 80 154 89v89q0 23 -24 43q-22 18 -44 17h-4h-9q-73 -52 -73 -119v-119z" />
<glyph unicode="b" horiz-adv-x="1371" d="M70 125v1151q0 53 35 88t88 35t88 -35t35 -88v-605q56 149 188.5 242t291.5 93q213 0 369.5 -151t156.5 -363q0 -209 -159 -368t-368 -159q-160 0 -294 100q-129 97 -185 251q0 -16 2 -59t2 -68q0 -187 -127 -187q-53 0 -88 35t-35 88zM111 255q60 86 164 96v201 q-58 -7 -109 -52q-55 -49 -55 -106v-139zM111 741q61 84 164 94v190q-58 -6 -109 -52q-55 -49 -55 -106v-126zM111 1184q61 84 164 93q-1 81 -82 81q-82 0 -82 -82v-92zM325 495q0 -62 66 -111q57 -44 116 -44h8h14q-40 71 -40 153q0 44 13 87q-72 69 -72 170q0 22 4 44 q-109 -131 -109 -299zM489 136q132 -116 306 -116q60 0 108 66q43 58 43 116v7v13q-69 -38 -149 -38q-37 0 -74 9q-68 -68 -165 -68q-36 0 -69 11zM530 493q0 -110 79 -189t188 -79q110 0 189 79t79 189q0 109 -79 188t-189 79q-109 0 -188 -79t-79 -188zM645 761 q71 40 152 40q41 0 79 -10q65 84 179 84q10 0 20 -1q-124 91 -276 91q-61 0 -111 -66q-43 -57 -43 -116v-8v-14zM1067 641q39 -69 39 -149q0 -33 -7 -64q80 -70 80 -179q0 -19 -3 -38q93 125 93 279q0 60 -66 109q-58 43 -117 43h-5z" />
<glyph unicode="c" horiz-adv-x="1070" d="M99 505q0 199 144 342.5t343 143.5q107 0 244 -70q159 -80 159 -176q0 -47 -33 -83.5t-80 -36.5q-44 0 -121 66t-167 66q-105 0 -180 -75t-75 -180q0 -104 75 -179t180 -75q65 0 157.5 64t147.5 64q43 0 72 -31.5t29 -75.5q0 -109 -154 -194q-135 -75 -254 -75 q-201 0 -345 153q-142 150 -142 352zM138 504q0 -59 62 -105q56 -42 113 -42h5h14q-38 68 -38 145q0 43 12 83q-69 66 -69 163q0 21 4 41q-103 -125 -103 -285zM294 162q126 -109 292 -109q57 0 103 63q41 55 41 111v5l-1 13q-66 -36 -141 -36q-36 0 -71 8q-65 -65 -157 -65 q-34 0 -66 10zM442 772l1 -14q67 38 145 38q38 0 75 -10q62 81 171 81q9 0 18 -1q-118 86 -262 86q-59 0 -104.5 -60.5t-43.5 -119.5z" />
<glyph unicode="d" horiz-adv-x="1421" d="M71 495q0 210 151 360.5t361 150.5q151 0 282.5 -83.5t195.5 -220.5v572q0 53 35 88t88 35t88 -35t35 -88v-1151q0 -53 -35 -88t-88 -35q-126 0 -126 179q0 19 1.5 54t1.5 49q-65 -139 -195 -227q-133 -90 -284 -90q-210 0 -362 161q-149 158 -149 369zM112 495 q0 -62 65 -111q58 -44 117 -44h7h15q-40 71 -40 153q0 44 12 87q-72 69 -72 170q0 22 4 44q-108 -131 -108 -299zM275 136q133 -116 307 -116q60 0 108 66q43 59 43 118v5v13q-69 -38 -149 -38q-38 0 -74 9q-68 -68 -165 -68q-36 0 -70 11zM317 493q0 -110 78.5 -189 t188.5 -79t188.5 79t78.5 189q0 109 -78.5 188t-188.5 79t-188.5 -79t-78.5 -188zM431 775l1 -14q70 40 152 40q40 0 79 -10q65 84 179 84q10 0 20 -1q-124 91 -276 91q-62 0 -111 -66q-44 -58 -44 -119v-5zM854 641q38 -69 38 -149q0 -33 -7 -64q81 -70 81 -179 q0 -19 -3 -38q93 125 93 279q0 60 -66 109q-59 43 -118 43h-5zM1102 253q60 86 164 96v201q-58 -7 -109 -52q-55 -49 -55 -106v-139zM1102 739q61 84 164 94v190q-58 -6 -109 -52q-55 -49 -55 -106v-126zM1102 1182q61 84 164 93q-1 81 -82 81q-82 0 -82 -82v-92z" />
<glyph unicode="e" horiz-adv-x="1090" d="M85 494q0 201 157 341q152 135 355 135q119 0 243 -62q149 -75 149 -182q0 -80 -100 -155l-174 -138q-134 -100 -185 -100q-48 0 -86.5 35.5t-38.5 83.5q0 50 47 85l245 186q-47 18 -99 18q-106 0 -185 -71q-82 -73 -82 -178q0 -106 82 -179q79 -71 185 -71 q68 0 165.5 63t155.5 63q44 0 75 -30.5t31 -75.5q0 -107 -166 -191q-142 -71 -263 -71q-205 0 -358 145t-153 349zM126 493q0 -58 67 -104q59 -40 117 -40h6l14 1q-40 65 -40 142q0 41 12 81q-72 64 -72 159q0 20 5 40q-109 -122 -109 -279zM289 159q133 -107 307 -107 q59 0 106 58t45 117v13q-69 -36 -149 -36q-38 0 -74 9q-68 -64 -165 -64q-36 0 -70 10zM445 755l1 -14q71 38 152 38q40 0 79 -10q66 79 180 79q9 0 19 -1q-124 84 -276 84q-60 0 -108.5 -58t-46.5 -118zM447 451q0 -32 25.5 -56.5t57.5 -24.5q28 0 52 20l94 78 q46 46 46 104q0 54 -23 104l-221 -168q-31 -24 -31 -57z" />
<glyph unicode="f" horiz-adv-x="937" d="M63 102l2 861q0 175 125 300t300 125q176 0 300.5 -125t124.5 -300q0 -50 -36.5 -86.5t-86.5 -36.5q-53 0 -88 35t-35 88q0 73 -53.5 126t-127.5 53q-95 0 -148 -82q2 -15 -12 -22q-17 -35 -17 -75v-172q49 -1 85 -37.5t36 -85.5q0 -50 -36 -86.5t-86 -36.5l-1 -443 q0 -52 -35 -87t-88 -35t-88 34.5t-35 87.5zM104 233q60 85 164 96v200q-58 -6 -109 -52q-55 -49 -55 -105v-139zM104 719q61 84 164 93v190q-58 -6 -109 -52q-55 -49 -55 -105v-126zM299 1178q0 -42 18 -79q62 78 160 83q60 117 192 121q-84 44 -179 44q-58 0 -113 -17 q-28 -33 -55 -67q-23 -34 -23 -85zM706 1008q7 -43 15 -86q15 -41 71 -41q39 0 63 26q-46 93 -149 101z" />
<glyph unicode="g" horiz-adv-x="1151" d="M90 603q0 152 110.5 260t263.5 108q104 0 192.5 -55.5t135.5 -148.5q0 120 9 151q23 80 114 80q52 0 87.5 -35t35.5 -87l-2 -861q0 -174 -125.5 -299.5t-299.5 -125.5q-175 0 -300 125.5t-125 299.5q0 50 36.5 86.5t85.5 36.5q80 0 110 -78q23 -73 47 -146 q40 -78 148 -78q73 0 125 54t52 128l1 411q-48 -91 -138.5 -145.5t-194.5 -54.5q-152 0 -260 110.5t-108 263.5zM131 595q2 -116 78 -206.5t189 -112.5q-35 45 -35 102q0 40 19 76q-87 47 -87 148q0 20 5 39q-28 14 -61 14q-72 0 -108 -60zM232 -14q0 -48 20 -82 q53 71 138 111q0 82 -82 82q-39 0 -62 -26q-14 -39 -14 -85zM336 600q0 -51 37.5 -88t87.5 -37q51 0 88 37t37 88t-37 88t-88 37q-50 0 -87.5 -37t-37.5 -88zM490 -176q30 -90 30 -168v-10q27 -15 91 -15q116 0 227 84q-37 52 -64 69q-31 20 -90 23q-29 -15 -76 -15 q-59 0 -118 32zM524 924q35 -45 35 -102q0 -40 -19 -76q87 -47 87 -147q0 -21 -5 -40q29 -14 61 -14q72 0 108 60q-2 116 -77.5 206.5t-189.5 112.5zM832 0q60 86 164 96v201q-59 -7 -110 -52q-54 -49 -54 -106v-139zM832 486q61 84 164 94v190q-59 -7 -110 -52 q-54 -49 -54 -106v-126z" />
<glyph unicode="h" horiz-adv-x="1049" d="M87 102v1151q0 53 35 88t88 35t88 -35t35 -88v-324q77 53 185 53q176 0 300.5 -124.5t124.5 -300.5v-455q0 -49 -36.5 -85.5t-86.5 -36.5q-53 0 -88 34.5t-35 87.5v455q0 73 -53.5 126t-127.5 53q-101 0 -183 -138v-496q0 -53 -35 -87.5t-88 -34.5t-88 34.5t-35 87.5z M128 233q60 85 164 96v200q-58 -6 -109 -52q-55 -49 -55 -105v-139zM128 719q61 84 164 93v190q-58 -6 -109 -52q-55 -49 -55 -105v-126zM128 1161q61 84 164 94q-1 80 -82 80q-82 0 -82 -82v-92zM333 727q0 -8 12 -34q61 78 160 84q60 116 191 120q-83 44 -178 44 q-58 0 -113 -17q-23 -24 -45 -47q-27 -32 -27 -58v-92zM733 602l5 -207q109 -12 158 -96v209q-39 97 -136 97q-11 0 -27 -3zM740 143q1 -108 81 -108q33 0 69 26q-62 75 -150 82z" />
<glyph unicode="i" horiz-adv-x="450" d="M111 102v789q0 53 35 88t88 35t87.5 -35t34.5 -88v-789q0 -53 -34.5 -87.5t-87.5 -34.5t-88 34.5t-35 87.5zM111 1255q0 51 36.5 88t87.5 37q52 0 89 -37t37 -88t-37 -88t-88 -37t-88 37t-37 88zM152 233q60 85 163 96v200q-57 -6 -109 -52q-54 -49 -54 -105v-139z M152 719q60 84 163 93v95q0 25 -26 45t-50 19l-10 -1q-77 -54 -77 -125v-126zM177 1215q24 -35 64 -35q29 0 50 21.5t21 50.5q0 19 -11 35q-12 3 -25 3q-80 0 -99 -75z" />
<glyph unicode="j" horiz-adv-x="1042" d="M76 15q0 50 36.5 86.5t86.5 36.5q84 0 111 -78q20 -73 41 -146q39 -78 152 -78q68 0 122.5 55t54.5 124l2 860q0 53 35 88t88 35t88 -34.5t35 -87.5l-2 -861q0 -175 -125 -300t-300 -125q-176 0 -300.5 125t-124.5 300zM122 -14q0 -48 20 -82q44 59 86 85q1 1 29 13 q24 10 24 13q0 82 -82 82q-39 0 -63 -26q-14 -39 -14 -85zM380 -176q31 -91 31 -169v-9q25 -15 90 -15q116 0 227 84q-38 54 -64 70q-29 19 -89 22q-29 -15 -77 -15q-59 0 -118 32zM680 1223q0 51 37 88t88 37t88 -37t37 -88t-37 -88t-88 -37t-88 37t-37 88zM722 0 q60 86 164 96v201q-58 -7 -109 -52q-55 -49 -55 -106v-139zM722 486q61 84 164 94v190q-58 -7 -109 -52q-55 -49 -55 -106v-126zM747 1183q23 -35 63 -35q29 0 50 21.5t21 50.5q0 19 -10 35q-13 3 -26 3q-80 0 -98 -75z" />
<glyph unicode="k" horiz-adv-x="934" d="M83 102v1151q0 53 35 88t88 35t88 -35t35 -88v-600q37 54 212 184q179 133 223 133q50 0 87 -39t37 -89q0 -57 -50 -95l-239 -181l315 -385q30 -36 30 -78q0 -49 -39 -87t-89 -38t-92 47q-175 195 -207 232q-148 170 -188 236v-391q0 -53 -35 -87.5t-88 -34.5t-88 34.5 t-35 87.5zM124 233q60 85 164 96v200q-58 -6 -109 -52q-55 -49 -55 -105v-139zM124 719q61 84 164 93v190q-58 -6 -109 -52q-55 -49 -55 -105v-126zM124 1161q61 84 164 94q-1 80 -82 80q-82 0 -82 -82v-92zM446 711q20 4 41 4q91 0 150 -69l161 122q-52 76 -123 76 q-31 0 -61 -17l-15 -3q-51 -37 -153 -113zM520 385q0 -58 65 -138q53 -59 107 -119v7q0 97 79 156l-183 223q-68 -45 -68 -129z" />
<glyph unicode="l" horiz-adv-x="490" d="M111 102v1151q0 53 35 88t88 35t88 -35t35 -88v-1151q0 -53 -35 -87.5t-88 -34.5t-88 34.5t-35 87.5zM152 233q60 85 164 96v200q-58 -6 -109 -52q-55 -49 -55 -105v-139zM152 719q61 84 164 93v190q-58 -6 -109 -52q-55 -49 -55 -105v-126zM152 1161q61 84 164 94 q-1 80 -82 80q-82 0 -82 -82v-92z" />
<glyph unicode="m" horiz-adv-x="1661" d="M103 102v789q0 53 35 88t88 35q95 0 118 -88q94 56 190 56q167 0 289 -113q139 113 294 113q176 0 300.5 -124.5t124.5 -300.5v-455q0 -49 -36.5 -85.5t-85.5 -36.5q-53 0 -88 34.5t-35 87.5v455q0 73 -53.5 126t-128.5 53q-49 0 -96.5 -27.5t-67.5 -72.5q8 -39 8 -79 v-455q0 -49 -37 -85.5t-86 -36.5q-53 0 -88 34.5t-35 87.5v455q0 73 -53.5 126t-127.5 53q-96 0 -149 -82q3 -15 -12 -21q-16 -35 -16 -76q-16 -71 -16 -171q0 -48 4.5 -143.5t4.5 -140.5q0 -53 -34.5 -87.5t-87.5 -34.5t-88 34.5t-35 87.5zM144 233q60 85 163 96v200 q-57 -6 -109 -52q-54 -49 -54 -105v-139zM144 719q60 84 163 93v95q0 25 -26 45q-25 19 -48 19h-2l-10 -1q-77 -54 -77 -125v-126zM348 727q0 -8 13 -34q61 78 160 84q60 116 191 120q-83 44 -178 44q-58 0 -114 -17q-22 -24 -44 -47q-28 -32 -28 -58v-92zM749 602l5 -207 q108 -12 158 -96v209q-39 97 -136 97q-11 0 -27 -3zM756 143q1 -108 81 -108q32 0 69 26q-62 75 -150 82zM908 776q5 -19 37 -83q61 78 159 84q61 116 192 120q-84 44 -179 44q-97 0 -143 -37t-66 -128zM1333 602l5 -207q108 -12 157 -96v209q-38 97 -136 97q-10 0 -26 -3z M1340 143q1 -108 80 -108q33 0 69 26q-62 75 -149 82z" />
<glyph unicode="n" horiz-adv-x="1083" d="M104 102v789q0 53 35 88t88 35q96 0 119 -88q94 56 190 56q175 0 300 -124.5t125 -300.5v-455q0 -49 -37 -85.5t-86 -36.5q-53 0 -88 34.5t-35 87.5v455q0 73 -53.5 126t-127.5 53q-96 0 -149 -82q3 -15 -12 -21q-16 -35 -17 -76q-16 -71 -16 -171q0 -48 5 -143.5 t5 -140.5q0 -53 -35 -87.5t-88 -34.5t-88 34.5t-35 87.5zM145 233q60 85 164 96v200q-58 -6 -109 -52q-55 -49 -55 -105v-139zM145 719q61 84 164 93v95q0 25 -26 45q-25 19 -49 19h-2l-9 -1q-78 -54 -78 -125v-126zM350 727q0 -8 13 -34q61 78 159 84q61 116 192 120 q-83 44 -178 44q-59 0 -114 -17q-22 -24 -44 -47q-28 -32 -28 -58v-92zM751 602l5 -207q108 -12 157 -96v209q-38 97 -136 97q-10 0 -26 -3zM758 143q1 -108 80 -108q33 0 69 26q-62 75 -149 82z" />
<glyph unicode="o" horiz-adv-x="1156" d="M88 500q0 198 143 340t340 142q201 0 349 -142.5t148 -342.5q0 -197 -150 -347t-347 -150q-199 0 -342 152q-141 149 -141 348zM127 500q0 -59 62 -105q54 -41 109 -41h8h14q-38 67 -38 144q0 42 12 82q-68 65 -68 161q0 21 3 41q-102 -123 -102 -282zM281 161 q126 -109 290 -109q56 0 102 62q40 56 40 111v5v13q-65 -36 -140 -36q-36 0 -70 8q-65 -64 -156 -64q-34 0 -66 10zM320 498q0 -104 74.5 -178t178.5 -74q103 0 177.5 74t74.5 178q0 103 -74.5 177.5t-177.5 74.5q-104 0 -178.5 -74.5t-74.5 -177.5zM428 765l1 -14 q67 38 144 38q38 0 74 -10q62 80 170 80q9 0 18 -1q-117 85 -260 85q-59 1 -104 -59q-43 -57 -43 -114v-5zM828 638q36 -65 36 -141q0 -30 -7 -60q76 -66 76 -169q0 -18 -3 -36q88 118 88 264q0 56 -62 102q-55 41 -111 41h-5z" />
<glyph unicode="p" horiz-adv-x="1414" d="M70 -295v1151q0 53 35 88t88 35q127 0 127 -186q0 -23 -2 -65t-2 -57q56 149 188.5 242t291.5 93q213 0 369.5 -151t156.5 -363q0 -209 -159 -368t-368 -159q-160 0 -294 100q-129 97 -185 251v-611q0 -53 -35 -88t-88 -35t-88 35t-35 88zM111 -26v-139q60 86 164 96v201 q-58 -6 -109 -52q-55 -49 -55 -106zM111 321q61 85 164 94v190q-58 -6 -109 -52q-55 -49 -55 -105v-127zM111 764q61 84 164 93q-1 81 -82 81q-82 0 -82 -82v-92zM325 495q0 -62 66 -111q57 -44 116 -44h8h14q-40 71 -40 153q0 44 13 87q-72 69 -72 170q0 22 4 44 q-109 -131 -109 -299zM488 136q133 -116 307 -116q60 0 108 66q43 59 43 118v5v13q-69 -38 -149 -38q-37 0 -74 9q-68 -68 -165 -68q-36 0 -70 11zM530 493q0 -110 79 -189t188 -79q110 0 189 79t79 189q0 109 -79 188t-189 79t-188.5 -79t-78.5 -188zM645 761q71 40 152 40 q40 0 79 -10q65 84 179 84q10 0 20 -1q-124 91 -276 91q-62 0 -111 -66q-43 -57 -43 -116v-8v-14zM1067 641q38 -69 38 -149q0 -33 -6 -64q80 -70 80 -179q0 -19 -3 -38q93 125 93 279q0 60 -66 109q-58 43 -117 43h-5z" />
<glyph unicode="q" horiz-adv-x="1417" d="M71 495q0 210 151 360.5t361 150.5q151 0 282.5 -83.5t195.5 -220.5q0 14 -1 47.5t-1 52.5q0 177 125 177q53 0 88 -35t35 -88v-1151q0 -53 -35 -88t-88 -35t-88 35t-35 88v577q-65 -139 -195 -227q-133 -90 -284 -90q-210 0 -362 161q-149 158 -149 369zM112 495 q0 -62 65 -111q58 -44 117 -44h7h15q-40 71 -40 153q0 44 12 87q-72 69 -72 170q0 22 5 44q-109 -131 -109 -299zM275 136q133 -116 307 -116q60 0 108 66q43 59 43 118v5v13q-69 -38 -149 -38q-38 0 -74 9q-68 -68 -165 -68q-36 0 -70 11zM317 493q0 -110 78.5 -189 t188.5 -79t188.5 79t78.5 189q0 109 -78.5 188t-188.5 79t-188.5 -79t-78.5 -188zM431 775l1 -14q70 40 152 40q40 0 79 -10q65 84 179 84q10 0 20 -1q-124 91 -276 91q-62 0 -111 -66q-44 -58 -44 -119v-5zM854 641q38 -69 38 -149q0 -33 -7 -64q81 -70 81 -179 q0 -19 -3 -38q93 125 93 279q0 60 -66 109q-59 43 -118 43h-5zM1102 -26v-139q60 86 164 96v201q-58 -6 -109 -52q-55 -49 -55 -106zM1102 321q61 85 164 94v190q-74 -8 -119 -61.5t-45 -128.5v-94zM1102 764q61 84 164 93q-1 81 -82 81q-82 0 -82 -82v-92z" />
<glyph unicode="r" horiz-adv-x="988" d="M82 102v789q0 53 35 88t88 35q95 0 118 -88q94 56 190 56q176 0 300.5 -124.5t124.5 -300.5q0 -50 -37 -86.5t-86 -36.5q-53 0 -88 35t-35 88q0 73 -53.5 126t-127.5 53q-96 0 -149 -82q3 -15 -12 -21q-16 -35 -16 -76q-16 -71 -16 -171q0 -48 4.5 -143.5t4.5 -140.5 q0 -53 -34.5 -87.5t-87.5 -34.5t-88 34.5t-35 87.5zM123 233q60 85 163 96v200q-57 -6 -109 -52q-54 -49 -54 -105v-139zM123 719q60 84 163 93v95q0 25 -26 45q-25 19 -48 19h-2l-10 -1q-77 -54 -77 -125v-126zM327 727q0 -8 13 -34q61 78 160 84q60 116 191 120 q-83 44 -178 44q-58 0 -114 -17q-22 -24 -44 -47q-28 -32 -28 -58v-92zM728 602q8 -43 15 -85q16 -42 72 -42q39 0 62 26q-46 93 -149 101z" />
<glyph unicode="s" horiz-adv-x="1013" d="M92 111q0 124 186 124q37 0 111.5 -5t112.5 -5q168 0 168 107q0 88 -146 101q-232 20 -269 34q-146 54 -146 243q0 113 81 194t195 81h177q51 0 85 -34t34 -85q0 -120 -158 -120q-18 0 -51.5 1.5t-47.5 1.5q-76 0 -76 -39q0 -43 110 -43q26 0 65 3t45 3q140 0 240 -100.5 t100 -240.5t-100.5 -240t-239.5 -100h-357q-51 0 -85 34t-34 85zM131 111q0 -66 61 -78q10 100 93 157h-74q-80 0 -80 -79zM241 523q63 -49 144 -49h173l15 8q109 6 152 106q-72 45 -157 45h-109q-16 -56 -90 -88q-54 -23 -108 -23zM259 909q12 -40 49 -79q41 -44 79 -44 h155q1 87 62 150q-18 9 -42 9h-177q-69 0 -126 -36zM383 747h5h-5zM548 69l2 -38h18q93 0 172.5 56t110.5 144q-86 5 -145 68q-9 -36 -50 -80q-46 -18 -78 -61q-30 -40 -30 -84v-5z" />
<glyph unicode="t" horiz-adv-x="973" d="M75 1260q0 53 35 87.5t88 34.5t88 -35t35 -87l1 -293h111q50 0 86 -36.5t36 -86.5q0 -89 -81 -113q-34 -10 -133 -10h-18q0 -14 -5 -128q-2 -47 -2 -84.5t2 -65.5q4 -81 22 -119q14 -7 12 -22q53 -82 148 -82q74 0 127.5 53t53.5 126q0 53 35 88t88 35q50 0 86.5 -36.5 t36.5 -86.5q0 -175 -124.5 -300t-300.5 -125q-175 0 -300 125t-125 300zM114 324q60 85 164 96v200q-58 -6 -109 -52q-55 -49 -55 -105v-139zM114 810q61 84 164 93v190q-58 -6 -109 -52q-55 -49 -55 -105v-126zM311 184q0 -52 23 -86q27 -33 55 -66q55 -17 113 -17 q95 0 179 44q-132 4 -192 121q-98 5 -160 83q-18 -37 -18 -79zM718 354q103 8 149 101q-24 26 -63 26q-56 0 -71 -41q-8 -43 -15 -86z" />
<glyph unicode="u" horiz-adv-x="1084" d="M104 436v455q0 49 37 86t86 37q53 0 88 -35t35 -88v-455q0 -73 53.5 -126t127.5 -53q96 0 149 82q-3 15 12 22q16 34 17 75q15 72 15 171q0 48 -4.5 143.5t-4.5 140.5q0 53 35 88t88 35t88 -35t35 -88v-789q0 -53 -35 -87.5t-88 -34.5q-96 0 -119 87q-94 -56 -190 -56 q-175 0 -300 124.5t-125 300.5zM152 485q38 -96 136 -96q10 0 26 2l-5 207q-109 12 -157 96v-209zM158 932q62 -74 149 -82q-1 109 -80 109q-33 0 -69 -27zM351 96q83 -44 178 -44q59 0 114 17q22 24 44 47q28 32 28 58v92q0 8 -13 34q-61 -78 -160 -84q-60 -116 -191 -120z M756 86q0 -25 27 -45q25 -18 47 -18h4h8q78 54 78 125v126q-21 3 -36 3q-73 0 -128 -96v-95zM756 464q28 53 102 97q62 37 62 60v176q-8 5 -18 5q-35 0 -90.5 -52t-55.5 -85v-201z" />
<glyph unicode="v" horiz-adv-x="1198" d="M63 901q0 50 39.5 85.5t89.5 35.5q70 0 105 -68l297 -569l296 569q36 68 105 68q51 0 90 -35.5t39 -85.5q0 -30 -16 -60l-405 -779q-41 -79 -109 -79t-109 79q-116 216 -233 432q-189 358 -189 407zM217 718q0 -53 85 -215q4 110 94 173l-101 193q-78 -55 -78 -151z M463 263q0 -32 18 -73.5t18 -40.5l-6 -13q32 -63 37 -70q29 -42 64 -42q43 0 72 57l128 244q-51 -27 -108 -27q-61 0 -108 29q-2 4 -43 82q-72 -55 -72 -146zM732 562q31 -12 64 -12q123 0 170 115q7 4 51 88q-50 -26 -105 -26q-44 0 -85 17z" />
<glyph unicode="w" horiz-adv-x="1778" d="M63 901q0 50 39.5 85.5t89.5 35.5q70 0 105 -68l297 -569l167 313q28 53 49 72q30 27 81 27q66 0 118 -99l165 -313l296 569q35 68 105 68q50 0 89.5 -35t39.5 -85q0 -30 -16 -61l-405 -779q-41 -78 -109 -78t-109 78l-180 344l-182 -344q-42 -78 -110 -78q-67 0 -108 78 q-116 216 -233 432q-189 358 -189 407zM218 731q0 -69 83 -228q5 110 95 173l-101 193q-77 -54 -77 -138zM466 267q0 -63 35 -145q40 -98 93 -98q43 0 72 57l128 244q-64 -35 -113 -35q-84 0 -146 119q-69 -53 -69 -142zM742 578q87 -38 119 -140q17 13 32 13q28 0 60 -50 l-1 25v13q0 115 70 145q-76 155 -138 155t-142 -161zM1046 267q0 -63 34 -145q41 -98 94 -98q43 0 72 57l127 244q-64 -35 -112 -35q-84 0 -146 119q-69 -53 -69 -142zM1312 562q31 -12 63 -12q124 0 170 115q8 4 51 88q-49 -26 -105 -26q-43 0 -84 17z" />
<glyph unicode="x" horiz-adv-x="975" d="M90 867q0 49 39 84.5t88 35.5q55 0 93 -47l209 -262l209 262q38 47 93 47q49 0 88 -36t39 -84q0 -51 -118 -197q-78 -93 -156 -185l154 -182q116 -144 116 -195q0 -49 -39 -85t-88 -36q-54 0 -93 48l-205 257l-205 -257q-38 -48 -93 -48q-49 0 -88 36t-39 85 q0 51 116 195q77 91 155 182q-80 94 -160 187q-115 143 -115 195zM132 867q0 -23 15 -44q4 67 45 119q-60 -18 -60 -75zM243 202q0 -74 52 -125l114 142q-76 69 -77 160q-89 -111 -89 -177zM327 658q0 -61 64 -140l102 127l-112 141q-54 -52 -54 -128zM536 566 q0 -73 51 -124l165 206q-69 64 -69 156v13q-47 -58 -95 -116q-52 -75 -52 -135zM569 295l110 -138v18q-2 86 69 152l-101 125l-55 -69q-11 -28 -23 -88z" />
<glyph unicode="y" horiz-adv-x="1083" d="M102 582v299q0 49 36.5 86t86.5 37q53 0 88 -35t35 -88v-299q0 -73 53.5 -126t127.5 -53q111 0 186 119l1 353q0 53 35 88t88 35t88 -34.5t35 -87.5l-3 -861q0 -175 -124.5 -300t-299.5 -125q-176 0 -300.5 125t-124.5 300q0 50 36.5 86.5t85.5 36.5q53 0 88 -35t35 -88 q0 -73 53.5 -126t128.5 -53q95 0 148 82q-2 15 12 22q14 30 18 86q2 31 2 73v30q-3 87 -3 83q-127 -55 -187 -55q-176 0 -300.5 124.5t-124.5 300.5zM149 631q39 -97 136 -97q11 0 27 3l-5 207q-109 12 -158 96v-209zM156 -14q0 -48 20 -82q44 59 86 85q1 1 29 13 q23 10 23 13q0 82 -82 82q-39 0 -62 -26q-14 -39 -14 -85zM349 242q83 -44 178 -44q58 0 113 17q23 24 45 47q27 32 27 58v92q0 8 -12 34q-61 -78 -160 -84q-60 -116 -191 -120zM414 -176q30 -91 30 -168v-10q26 -15 91 -15q115 0 227 84q-37 52 -62 68q-31 19 -92 24 q-29 -15 -76 -15q-59 0 -118 32zM756 0q60 86 164 96v201q-58 -7 -110 -52q-54 -49 -54 -106v-139zM756 486q61 84 164 94v190q-58 -7 -110 -52q-54 -49 -54 -106v-126z" />
<glyph unicode="z" horiz-adv-x="986" d="M80 95q0 43 32 86l412 557h-316q-51 0 -85 34t-34 85t34 85t85 34h553q51 0 87 -26q41 -28 41 -78q0 -43 -32 -86l-412 -556h310q51 0 85 -34.5t34 -85.5t-34 -85t-85 -34h-547q-51 0 -87 26q-41 29 -41 78zM130 857q0 -64 59 -77q9 96 86 155h-67q-78 0 -78 -78z M242 287q59 -64 59 -151q0 -55 -25 -104h182q12 100 95 157q-15 0 -45 -1.5t-45 -1.5q-81 0 -81 18q0 5 26.5 52t26.5 91q0 76 -53 129zM531 779h22q34 1 34 -18q0 -13 -17 -31q70 -66 70 -163v-5q60 77 121 153q87 117 87 157q0 63 -87 63h-90q-48 0 -93 -55 q-41 -50 -47 -101z" />
<glyph unicode="{" horiz-adv-x="998" d="M60 680q0 51 36.5 87t86.5 36q6 0 19 11.5t22 12.5q37 233 185 387q160 167 387 167q50 0 86.5 -36t36.5 -87q0 -50 -36.5 -86t-86.5 -36q-156 0 -256 -155q-87 -135 -87 -301t86 -300q98 -155 255 -155q50 0 86.5 -36t36.5 -87q0 -50 -36.5 -86t-86.5 -36 q-230 0 -391 173q-147 158 -183 396q-59 -5 -108 33q-52 40 -52 98zM261 537q10 -73 52 -167l4 1q4 0 57 -48t104 -48q37 0 78 20q-79 81 -116 199l-36 -2q-81 -3 -143 45zM307 976q5 -5 5 -82q0 -109 103 -149q12 114 61 210q-60 61 -60 148q0 33 10 65q-74 -83 -119 -192z M613 58q59 -25 182 -38l-1 -1q20 0 46.5 30.5t26.5 52.5q0 44 -69 82q-14 -52 -73 -89q-55 -35 -112 -37zM673 1176l2 -26q60 17 120 33q77 26 77 85q0 45 -72 72q0 4 -2 4q-26 0 -76.5 -69t-48.5 -99z" />
<glyph unicode="|" horiz-adv-x="487" d="M111 102v1151q0 53 35 88t88 35t88 -35t35 -88v-1151q0 -53 -35 -87.5t-88 -34.5t-88 34.5t-35 87.5zM152 233q60 85 164 96v200q-58 -6 -109 -52q-55 -49 -55 -105v-139zM152 719q61 84 164 93v190q-58 -6 -109 -52q-55 -49 -55 -105v-126zM152 1161q61 84 164 94 q-1 80 -82 80q-82 0 -82 -82v-92z" />
<glyph unicode="}" horiz-adv-x="1000" d="M60 102q0 51 36.5 87t86.5 36q156 0 256 155q87 135 87 300q0 167 -86 301q-98 155 -255 155q-50 0 -86.5 36t-36.5 86q0 51 36.5 87t86.5 36q230 0 391 -173q147 -159 183 -396q59 5 109.5 -34t50.5 -98q0 -50 -36.5 -86t-86.5 -36q-6 0 -19 -11.5t-22 -13.5 q-37 -232 -185 -387q-160 -166 -387 -166q-50 0 -86.5 36t-36.5 86zM107 93q0 -45 72 -73q0 -3 2 -4q26 0 76.5 69.5t48.5 99.5l-2 26q-61 -17 -121 -33q-76 -26 -76 -85zM112 1259q0 -44 69 -82q13 51 73 89q55 35 112 37q-59 24 -182 37l1 2q-21 0 -47 -30.5t-26 -52.5z M423 1065q79 -81 116 -198l36 1q81 4 143 -44q-10 72 -52 167l-4 -1q-4 0 -57 47.5t-104 47.5q-37 0 -78 -20zM502 406q61 -62 61 -148q0 -33 -11 -65q75 83 120 192q-5 5 -5 82q0 109 -104 149q-11 -115 -61 -210z" />
<glyph unicode="~" horiz-adv-x="0" d="M87 1162q0 54 86 144q60 57 119 113q89 90 174 90q68 0 141 -60q14 -11 111 -110q37 38 73 76q49 44 92 44q47 0 87.5 -38.5t40.5 -84.5q0 -49 -49 -98l-106 -116q-85 -83 -138 -83t-140 85q-56 61 -112 121q-56 -60 -112 -121q-87 -85 -140 -85q-47 0 -87 38.5t-40 84.5 zM277 1271q0 -66 40 -116q110 109 130 124q76 57 165 57q41 0 72 -17q-82 80 -98 92q-63 49 -121 49q-75 0 -131.5 -57.5t-56.5 -131.5zM911 1249q58 37 58 82q0 42 -47 64z" />
<glyph unicode="&#xa0;" />
<glyph unicode="&#xa1;" />
<glyph unicode="&#xa2;" />
<glyph unicode="&#xa3;" />
<glyph unicode="&#xa4;" />
<glyph unicode="&#xa5;" />
<glyph unicode="&#xa6;" horiz-adv-x="450" />
<glyph unicode="&#xa7;" horiz-adv-x="1013" d="M33 1106q0 143 103.5 247t247.5 104h368q52 0 87.5 -35.5t35.5 -87.5q0 -128 -192 -128q-39 0 -115.5 5t-115.5 5q-173 0 -173 -110q0 -91 150 -104q239 -20 278 -35q150 -56 150 -250q0 -77 -39 -142q103 -103 103 -248q0 -143 -104 -247t-247 -104h-368 q-52 0 -87.5 35.5t-35.5 87.5q0 128 192 128q39 0 115.5 -5t115.5 -5q173 0 173 110q0 91 -150 104q-239 20 -278 35q-150 56 -150 251q0 76 38 141q-102 103 -102 248zM92 1210q88 -5 150 -70q9 38 51 83q49 19 81.5 61.5t29.5 92.5l-2 39h-18q-96 0 -178 -58t-114 -148z M120 99q0 -68 63 -80q10 103 95 162h-76q-82 0 -82 -82zM261 899q51 -103 122 -103h113q12 43 60 73q17 46 51 80q-24 13 -157 13q-124 0 -189 -63zM343 717q0 -42 126 -42q75 0 84 1q58 7 58 41q0 41 -127 41q-75 0 -84 -1q-57 -7 -57 -40zM347 484q24 -13 157 -13 q124 0 189 63q-52 103 -122 103h-113q-12 -43 -61 -73q-16 -46 -50 -80zM549 56l2 -39h19q96 0 178 58t114 148q-89 5 -150 70q-9 -38 -51 -83q-49 -19 -81 -60q-33 -44 -31 -94zM675 1252h77q82 0 82 82q0 68 -63 80q-10 -103 -96 -162z" />
<glyph unicode="&#xa8;" />
<glyph unicode="&#xa9;" />
<glyph unicode="&#xaa;" />
<glyph unicode="&#xab;" />
<glyph unicode="&#xac;" />
<glyph unicode="&#xad;" horiz-adv-x="1230" />
<glyph unicode="&#xae;" />
<glyph unicode="&#xaf;" />
<glyph unicode="&#xb0;" />
<glyph unicode="&#xb1;" />
<glyph unicode="&#xb2;" horiz-adv-x="491" d="M51 848q0 8 1 30v29q-1 66 74 120q17 12 140 77q75 41 75 73q0 33 -30 56q-27 20 -62 20q-34 0 -62 -21q-31 -23 -31 -56q0 -49 -49 -49t-49 49q0 75 58 126q55 49 131 49q77 0 134.5 -49t57.5 -124q0 -72 -47 -116q-30 -27 -107 -61q-82 -36 -113 -60q-22 -18 -22 -29 q0 -1 1 -6h239q49 0 49 -49t-49 -49h-288q-51 0 -51 40zM65 860q0 -41 38 -41h60q-31 23 -31 59q0 12 4 23q-20 3 -40 5q-23 4 -25 24l-5 -6q0 -1 -1 -17v-47zM79 1216q26 27 64 27q13 0 25 -4q28 26 69 30q-20 39 -65 39q-5 0 -13.5 -1.5t-12.5 -2.5q-52 -33 -67 -88z M135 1014q17 -40 55 -40q11 0 77 34q-21 6 -42 13.5t-36 24.5zM261 1087q21 -36 63 -36q4 0 15 2t17 1q47 33 61 83q-26 -32 -68 -32q-15 0 -28 4q-25 -19 -60 -22zM265 890q2 -19 26.5 -42.5t42.5 -23.5h56q33 0 33 33q0 7 -26 13t-30 20h-102zM292 1330q36 -34 27 -83 q31 -22 37 -55q29 21 29 57q0 5 -9 36q-35 33 -84 45z" />
<glyph unicode="&#xb3;" horiz-adv-x="491" d="M54 988q0 49 50 49q49 0 49 -49q0 -34 31 -56q28 -21 62 -21q35 0 63.5 21t28.5 55q0 53 -71.5 69.5t-71.5 54.5t57 50t57 47q0 46 -64 46q-51 0 -64 -47.5t-48 -47.5q-50 0 -50 49q0 63 50 104t114 41t112 -42t48 -105q0 -51 -35 -90q64 -51 64 -130q0 -75 -57.5 -124 t-134.5 -49q-76 0 -133 50t-57 125zM76 948q15 -55 66 -89q5 0 13.5 -2t13.5 -2q44 0 64 40q-41 4 -68 30q-13 -4 -25 -4q-38 0 -64 27zM136 1269q0 -6 32 -45q4 11 14 21q-3 11 -3 22q0 38 28 65q-24 -16 -63 -40q-8 -14 -8 -23zM258 1077q34 -3 60 -23q13 5 28 5 q41 0 68 -33q-15 51 -61 84l-5 -1q-5 0 -14 2t-13 2q-42 0 -63 -36zM259 1270q18 -2 32 -11q16 7 33 7q36 0 62 -25q-9 31 -34 54q-4 1 -15.5 4t-17.5 3q-39 0 -60 -32zM288 834q50 11 85 45q9 31 9 35q0 37 -29 58q-6 -33 -37 -56q1 -8 1 -16q0 -40 -29 -66zM291 1155 q30 -7 56 -22q2 11 2 20q0 28 -25 42q-7 -26 -33 -40zM309 1206v2v-2z" />
<glyph unicode="&#xb4;" />
<glyph unicode="&#xb6;" horiz-adv-x="1105" d="M71 989q0 146 105 251.5t252 105.5h88q35 30 84 30t84 -30h267q48 0 84.5 -36.5t36.5 -84.5v-1104q0 -48 -36.5 -84.5t-84.5 -36.5t-84.5 36.5t-36.5 84.5v555q-35 -44 -107 -44v-530q0 -53 -35 -87.5t-88 -34.5t-88 34.5t-35 87.5v530q-173 0 -284 89q-122 97 -122 268z M112 980q3 -104 68.5 -186.5t165.5 -109.5q-62 75 -62 154q0 36 9 63q-21 34 -21 88t34 97q-19 4 -37 4q-85 0 -157 -110zM313 989q0 -116 164 -118v233h-49q-47 0 -81 -34.5t-34 -80.5zM508 1305q84 -59 94 -160h227q-8 70 -61 115t-124 45h-136zM518 233q60 85 164 96v200 q-58 -6 -109 -52q-55 -49 -55 -105v-139zM518 877l37 -1q71 0 127 5v121q-147 -16 -164 -125zM557 833q26 -160 179 -160q79 0 79 80q0 84 -145 84q-21 0 -113 -4zM723 876q76 -7 107 -43v271h-107v-228zM871 242q111 -1 160 63v214q-59 -83 -160 -91v-186zM871 731 q68 6 114 58.5t46 121.5v132q-59 -83 -160 -91v-221z" />
<glyph unicode="&#xb7;" horiz-adv-x="428" d="M106 719q0 51 37 88t88 37t88 -37t37 -88t-37 -88t-88 -37t-88 37t-37 88zM173 679q24 -35 63 -35q29 0 50.5 21.5t21.5 50.5q0 19 -11 35q-13 3 -25 3q-81 0 -99 -75z" />
<glyph unicode="&#xb8;" />
<glyph unicode="&#xb9;" horiz-adv-x="491" d="M124 1202q0 26 63.5 85.5t95.5 59.5q83 0 83 -75v-430q0 -50 -49 -50t-49 50v326q0 31 -20 31q-11 0 -32 -23.5t-41 -23.5q-18 0 -34.5 15.5t-16.5 34.5zM168 1243q39 -2 42 -3q23 -3 36 -20q13 14 19 53q6 33 35 50q-3 1 -9 1q-43 0 -123 -81zM284 894q24 34 66 38v80 q-23 -2 -44.5 -21t-21.5 -42v-55zM284 1088q25 34 66 37v77q-23 -3 -44.5 -22t-21.5 -41v-51z" />
<glyph unicode="&#xba;" />
<glyph unicode="&#xbb;" />
<glyph unicode="&#xbc;" horiz-adv-x="491" d="M46 210q0 11 143 309q16 34 90 34q28 0 54 -12q31 -15 31 -40v-239q81 0 81 -49t-81 -49v-123q0 -49 -49 -49t-49 49v123q-28 0 -84.5 -1t-84.5 -1q-51 0 -51 48zM62 210q0 -32 34 -32q20 0 44 53q-20 -12 -44 -12q-16 0 -31 6q-3 -8 -3 -15zM109 316q11 -4 23 -4 q48 0 84 79q-21 -11 -45 -11q-15 0 -30 5zM124 1202q0 26 63.5 85.5t95.5 59.5q83 0 83 -75v-430q0 -50 -49 -50t-49 50v326q0 31 -20 31q-11 0 -32 -23.5t-41 -23.5q-18 0 -34.5 15.5t-16.5 34.5zM168 1243q39 -2 42 -3q23 -3 36 -20q13 14 19 53q6 33 35 50q-3 1 -9 1 q-43 0 -123 -81zM174 262h92v178h-7zM209 514q30 -7 55 -52l14 72q-24 -3 -69 -20zM243 246q3 -23 22 -44.5t41 -21.5h51q-34 25 -38 66h-76zM283 41q0 -33 32 -33q33 0 33 33v37q-24 -34 -65 -37zM283 331q23 2 44 21t21 42v55q-24 -34 -65 -38v-80zM284 894q24 34 66 38 v80q-23 -2 -44.5 -21t-21.5 -42v-55zM284 1088q25 34 66 37v77q-23 -3 -44.5 -22t-21.5 -41v-51zM387 246q4 -36 34 -55q4 9 4 20q0 23 -20 35h-18z" />
<glyph unicode="&#xbd;" horiz-adv-x="491" d="M82 44q0 8 0.5 28t-0.5 30q-1 66 74 120q17 13 140 78q76 40 76 72q0 34 -28.5 55t-63.5 21t-63 -21q-31 -22 -31 -56q0 -49 -49 -49t-49 49q0 75 57 125t133 50t134 -49t58 -124q0 -72 -48 -115q-30 -28 -106 -62q-82 -36 -113 -60q-23 -18 -23 -28q0 -1 1 -6h240 q49 0 49 -50q0 -49 -49 -49h-289q-50 0 -50 41zM95 56q0 -42 38 -42h61q-32 24 -32 59q0 12 5 24l-40 4q-24 4 -26 24l-5 -6q1 -1 -1 -17v-46zM110 411q26 27 63 27q13 0 26 -4q27 26 68 30q-20 40 -65 40q-4 0 -13 -2t-13 -2q-51 -34 -66 -89zM124 1202q0 26 63.5 85.5 t95.5 59.5q83 0 83 -75v-430q0 -50 -49 -50t-49 50v326q0 31 -20 31q-11 0 -32 -23.5t-41 -23.5q-18 0 -34.5 15.5t-16.5 34.5zM165 209q18 -40 56 -40q10 0 77 34q-22 7 -43 14t-36 25zM168 1243q39 -2 42 -3q23 -3 36 -20q13 14 19 53q6 33 35 50q-3 1 -9 1 q-43 0 -123 -81zM284 894q24 34 66 38v80q-23 -2 -44.5 -21t-21.5 -42v-55zM284 1088q25 34 66 37v77q-23 -3 -44.5 -22t-21.5 -41v-51zM292 282q21 -36 62 -36q4 0 15.5 2.5t17.5 0.5q46 33 61 84q-27 -33 -69 -33q-15 0 -27 5q-26 -20 -60 -23zM295 85q2 -18 26.5 -41.5 t42.5 -23.5h57q32 0 32 32q0 8 -26 13.5t-29 19.5h-103zM322 525q37 -33 27 -82q31 -23 38 -56q29 21 29 58q0 4 -9 35q-35 34 -85 45z" />
<glyph unicode="&#xbe;" horiz-adv-x="491" d="M46 210q0 11 143 309q16 34 90 34q28 0 54 -12q31 -15 31 -40v-239q81 0 81 -49t-81 -49v-123q0 -49 -49 -49t-49 49v123q-28 0 -84.5 -1t-84.5 -1q-51 0 -51 48zM54 988q0 49 50 49q49 0 49 -49q0 -34 31 -56q28 -21 62 -21q35 0 63.5 21t28.5 55q0 53 -71.5 69.5 t-71.5 54.5t57 50t57 47q0 46 -64 46q-51 0 -64 -47.5t-48 -47.5q-50 0 -50 49q0 63 50 104t114 41t112 -42t48 -105q0 -51 -35 -90q64 -51 64 -130q0 -75 -57.5 -124t-134.5 -49q-76 0 -133 50t-57 125zM62 210q0 -32 34 -32q20 0 44 53q-20 -12 -44 -12q-16 0 -31 6 q-3 -8 -3 -15zM76 948q15 -55 66 -89q5 0 13.5 -2t13.5 -2q44 0 64 40q-41 4 -68 30q-13 -4 -25 -4q-38 0 -64 27zM109 316q11 -4 23 -4q48 0 84 79q-21 -11 -45 -11q-15 0 -30 5zM136 1269q0 -6 32 -45q4 11 14 21q-3 11 -3 22q0 38 28 65q-24 -16 -63 -40q-8 -14 -8 -23z M174 262h92v178h-7zM209 514q30 -7 55 -52l14 72q-24 -3 -69 -20zM243 246q3 -23 22 -44.5t41 -21.5h51q-34 25 -38 66h-76zM258 1077q34 -3 60 -23q13 5 28 5q41 0 68 -33q-15 51 -61 84l-5 -1q-5 0 -14 2t-13 2q-42 0 -63 -36zM259 1270q18 -2 32 -11q16 7 33 7 q36 0 62 -25q-9 31 -34 54q-4 1 -15.5 4t-17.5 3q-39 0 -60 -32zM283 41q0 -33 32 -33q33 0 33 33v37q-24 -34 -65 -37zM283 331q23 2 44 21t21 42v55q-24 -34 -65 -38v-80zM288 834q50 11 85 45q9 31 9 35q0 37 -29 58q-6 -33 -37 -56q1 -8 1 -16q0 -40 -29 -66zM291 1155 q30 -7 56 -22q2 11 2 20q0 28 -25 42q-7 -26 -33 -40zM309 1206v2v-2zM387 246q4 -36 34 -55q4 9 4 20q0 23 -20 35h-18z" />
<glyph unicode="&#xbf;" />
<glyph unicode="&#xc0;" />
<glyph unicode="&#xc1;" />
<glyph unicode="&#xc2;" />
<glyph unicode="&#xc3;" />
<glyph unicode="&#xc4;" />
<glyph unicode="&#xc5;" />
<glyph unicode="&#xc6;" />
<glyph unicode="&#xc7;" />
<glyph unicode="&#xc8;" />
<glyph unicode="&#xc9;" />
<glyph unicode="&#xca;" />
<glyph unicode="&#xcb;" />
<glyph unicode="&#xcc;" />
<glyph unicode="&#xcd;" />
<glyph unicode="&#xce;" />
<glyph unicode="&#xcf;" />
<glyph unicode="&#xd0;" />
<glyph unicode="&#xd1;" />
<glyph unicode="&#xd2;" />
<glyph unicode="&#xd3;" />
<glyph unicode="&#xd4;" />
<glyph unicode="&#xd5;" />
<glyph unicode="&#xd6;" />
<glyph unicode="&#xd7;" horiz-adv-x="1003" d="M98 769q0 50 38 88t88 38q48 0 85 -38l182 -181q58 62 115 125q90 88 146 88q50 0 88 -38t38 -88q0 -56 -88 -146q-63 -57 -125 -115q61 -57 123 -114q87 -88 87 -144q0 -50 -38 -88t-88 -38q-56 0 -144 87q-57 61 -114 123q-59 -63 -117 -127q-91 -89 -147 -89 q-50 0 -88 38t-38 88q0 56 89 146q64 59 127 118l-181 182q-38 37 -38 85zM139 770q0 -32 34 -69q28 -27 57 -54q-3 18 -3 37q0 82 53 145q-26 25 -57 25q-33 0 -58.5 -25.5t-25.5 -58.5zM142 231q31 -73 98 -73q11 0 26 3l33 33q-51 41 -116 41q-21 0 -41 -4zM320 450 q18 3 37 3q82 0 145 -53l135 135q-51 40 -117 40q-61 0 -111 -38q-12 -9 -89 -87zM630 757q18 3 36 3q83 0 146 -53q25 26 25 57q0 32 -25.5 58t-58.5 26q-32 0 -69 -34q-27 -29 -54 -57zM752 200q0 -21 4 -41q73 31 73 98q0 11 -3 26l-34 33q-40 -51 -40 -116z" />
<glyph unicode="&#xd8;" />
<glyph unicode="&#xd9;" />
<glyph unicode="&#xda;" />
<glyph unicode="&#xdb;" />
<glyph unicode="&#xdc;" />
<glyph unicode="&#xdd;" />
<glyph unicode="&#xde;" />
<glyph unicode="&#xdf;" />
<glyph unicode="&#xe0;" />
<glyph unicode="&#xe1;" />
<glyph unicode="&#xe2;" />
<glyph unicode="&#xe3;" />
<glyph unicode="&#xe4;" />
<glyph unicode="&#xe5;" />
<glyph unicode="&#xe6;" />
<glyph unicode="&#xe7;" />
<glyph unicode="&#xe8;" />
<glyph unicode="&#xe9;" />
<glyph unicode="&#xea;" />
<glyph unicode="&#xeb;" />
<glyph unicode="&#xec;" />
<glyph unicode="&#xed;" />
<glyph unicode="&#xee;" />
<glyph unicode="&#xef;" />
<glyph unicode="&#xf0;" />
<glyph unicode="&#xf1;" />
<glyph unicode="&#xf2;" />
<glyph unicode="&#xf3;" />
<glyph unicode="&#xf4;" />
<glyph unicode="&#xf5;" />
<glyph unicode="&#xf6;" />
<glyph unicode="&#xf7;" />
<glyph unicode="&#xf8;" />
<glyph unicode="&#xf9;" />
<glyph unicode="&#xfa;" />
<glyph unicode="&#xfb;" />
<glyph unicode="&#xfc;" />
<glyph unicode="&#xfd;" />
<glyph unicode="&#xfe;" />
<glyph unicode="&#xff;" />
<glyph unicode="&#x152;" />
<glyph unicode="&#x153;" />
<glyph unicode="&#x178;" />
<glyph unicode="&#x2c6;" />
<glyph unicode="&#x2dc;" />
<glyph unicode="&#x2000;" horiz-adv-x="754" />
<glyph unicode="&#x2001;" horiz-adv-x="1509" />
<glyph unicode="&#x2002;" horiz-adv-x="754" />
<glyph unicode="&#x2003;" horiz-adv-x="1509" />
<glyph unicode="&#x2004;" horiz-adv-x="503" />
<glyph unicode="&#x2005;" horiz-adv-x="377" />
<glyph unicode="&#x2006;" horiz-adv-x="251" />
<glyph unicode="&#x2007;" horiz-adv-x="251" />
<glyph unicode="&#x2008;" horiz-adv-x="188" />
<glyph unicode="&#x2009;" horiz-adv-x="301" />
<glyph unicode="&#x200a;" horiz-adv-x="83" />
<glyph unicode="&#x2010;" horiz-adv-x="1230" />
<glyph unicode="&#x2011;" horiz-adv-x="1230" />
<glyph unicode="&#x2012;" horiz-adv-x="1230" />
<glyph unicode="&#x2013;" />
<glyph unicode="&#x2014;" />
<glyph unicode="&#x2018;" />
<glyph unicode="&#x2019;" />
<glyph unicode="&#x201a;" />
<glyph unicode="&#x201c;" />
<glyph unicode="&#x201d;" />
<glyph unicode="&#x201e;" />
<glyph unicode="&#x2022;" horiz-adv-x="869" d="M64 683q0 152 110.5 260t263.5 108t260.5 -110.5t107.5 -263.5t-110.5 -260.5t-263.5 -107.5q-152 0 -260 110.5t-108 263.5zM105 675q2 -116 78 -206.5t189 -112.5q-35 45 -35 102q0 90 39 143q48 67 56 97q26 -12 115 -42q94 -31 110 -31q72 0 108 60 q-2 116 -77.5 206.5t-189.5 112.5q35 -45 35 -102q0 -96 -43 -134q-52 -47 -58 -70q-18 8 -106.5 22.5t-112.5 14.5q-72 0 -108 -60z" />
<glyph unicode="&#x2026;" />
<glyph unicode="&#x202f;" horiz-adv-x="301" />
<glyph unicode="&#x2039;" />
<glyph unicode="&#x203a;" />
<glyph unicode="&#x205f;" horiz-adv-x="377" />
<glyph unicode="&#x2122;" />
<glyph unicode="&#x25fc;" horiz-adv-x="985" d="M0 0v985h985v-985h-985z" />
</font>
</defs>
</svg>
